<svg width="71" height="92" viewBox="0 0 71 92" fill="none" xmlns="http://www.w3.org/2000/svg">
<g clip-path="url(#clip0_3684_12628)">
<path d="M20.349 58.07C20.6024 58.01 20.8757 57.97 21.169 57.95C21.4624 57.93 21.7524 57.92 22.039 57.92C22.3457 57.92 22.6557 57.95 22.969 58.01C23.289 58.07 23.579 58.18 23.839 58.34C24.099 58.5 24.309 58.72 24.469 59C24.6357 59.28 24.719 59.6367 24.719 60.07C24.719 60.4967 24.6424 60.8567 24.489 61.15C24.3357 61.4433 24.1324 61.6833 23.879 61.87C23.6257 62.05 23.3357 62.18 23.009 62.26C22.6824 62.34 22.3457 62.38 21.999 62.38C21.9657 62.38 21.909 62.38 21.829 62.38C21.7557 62.38 21.6757 62.38 21.589 62.38C21.509 62.3733 21.429 62.3667 21.349 62.36C21.269 62.3533 21.2124 62.3467 21.179 62.34V65H20.349V58.07ZM22.059 58.64C21.8857 58.64 21.719 58.6433 21.559 58.65C21.399 58.6567 21.2724 58.6733 21.179 58.7V61.6C21.2124 61.6133 21.2657 61.6233 21.339 61.63C21.4124 61.63 21.489 61.6333 21.569 61.64C21.649 61.64 21.7257 61.64 21.799 61.64C21.8724 61.64 21.9257 61.64 21.959 61.64C22.1857 61.64 22.409 61.62 22.629 61.58C22.8557 61.5333 23.059 61.4533 23.239 61.34C23.419 61.2267 23.5624 61.0667 23.669 60.86C23.7824 60.6533 23.839 60.39 23.839 60.07C23.839 59.7967 23.7857 59.57 23.679 59.39C23.579 59.2033 23.4424 59.0567 23.269 58.95C23.1024 58.8367 22.9124 58.7567 22.699 58.71C22.4857 58.6633 22.2724 58.64 22.059 58.64ZM26.025 60H26.825V65H26.025V60ZM25.855 58.48C25.855 58.3267 25.905 58.1967 26.005 58.09C26.1116 57.9767 26.245 57.92 26.405 57.92C26.565 57.92 26.7016 57.9767 26.815 58.09C26.9283 58.1967 26.985 58.3267 26.985 58.48C26.985 58.6333 26.9283 58.76 26.815 58.86C26.7016 58.96 26.565 59.01 26.405 59.01C26.245 59.01 26.1116 58.96 26.005 58.86C25.905 58.76 25.855 58.6333 25.855 58.48ZM28.2507 62.5C28.2507 61.6533 28.4374 61.0067 28.8107 60.56C29.1907 60.1067 29.7341 59.88 30.4407 59.88C30.8141 59.88 31.1374 59.9433 31.4107 60.07C31.6907 60.19 31.9207 60.3667 32.1007 60.6C32.2807 60.8267 32.4141 61.1033 32.5007 61.43C32.5874 61.75 32.6307 62.1067 32.6307 62.5C32.6307 63.3467 32.4407 63.9967 32.0607 64.45C31.6874 64.8967 31.1474 65.12 30.4407 65.12C30.0674 65.12 29.7407 65.06 29.4607 64.94C29.1874 64.8133 28.9607 64.6367 28.7807 64.41C28.6007 64.1767 28.4674 63.9 28.3807 63.58C28.2941 63.2533 28.2507 62.8933 28.2507 62.5ZM29.0807 62.5C29.0807 62.7533 29.1041 62.9967 29.1507 63.23C29.2041 63.4633 29.2841 63.6667 29.3907 63.84C29.4974 64.0133 29.6374 64.1533 29.8107 64.26C29.9841 64.3667 30.1941 64.42 30.4407 64.42C31.3474 64.4267 31.8007 63.7867 31.8007 62.5C31.8007 62.24 31.7741 61.9933 31.7207 61.76C31.6741 61.5267 31.5974 61.3233 31.4907 61.15C31.3841 60.9767 31.2441 60.84 31.0707 60.74C30.8974 60.6333 30.6874 60.58 30.4407 60.58C29.5341 60.5733 29.0807 61.2133 29.0807 62.5ZM37.7221 65.23C37.7221 65.8767 37.5487 66.3533 37.2021 66.66C36.8621 66.9667 36.3554 67.12 35.6821 67.12C35.2821 67.12 34.9587 67.0933 34.7121 67.04C34.4721 66.9933 34.2654 66.93 34.0921 66.85L34.3021 66.17C34.4554 66.23 34.6254 66.2867 34.8121 66.34C34.9987 66.3933 35.2421 66.42 35.5421 66.42C35.8221 66.42 36.0487 66.3933 36.2221 66.34C36.4021 66.2933 36.5454 66.21 36.6521 66.09C36.7587 65.9767 36.8321 65.8267 36.8721 65.64C36.9121 65.46 36.9321 65.2433 36.9321 64.99V64.51H36.8921C36.7587 64.7033 36.5887 64.8533 36.3821 64.96C36.1754 65.06 35.9054 65.11 35.5721 65.11C34.8987 65.11 34.4021 64.9 34.0821 64.48C33.7687 64.06 33.6121 63.4067 33.6121 62.52C33.6121 61.6667 33.8154 61.02 34.2221 60.58C34.6287 60.1333 35.2287 59.91 36.0221 59.91C36.4021 59.91 36.7254 59.94 36.9921 60C37.2654 60.06 37.5087 60.13 37.7221 60.21V65.23ZM35.7121 64.41C36.0521 64.41 36.3187 64.3267 36.5121 64.16C36.7054 63.9867 36.8421 63.72 36.9221 63.36V60.8C36.6554 60.6733 36.3154 60.61 35.9021 60.61C35.4487 60.61 35.0921 60.7633 34.8321 61.07C34.5721 61.3767 34.4421 61.8567 34.4421 62.51C34.4421 62.79 34.4654 63.0467 34.5121 63.28C34.5587 63.5133 34.6321 63.7133 34.7321 63.88C34.8321 64.0467 34.9621 64.1767 35.1221 64.27C35.2821 64.3633 35.4787 64.41 35.7121 64.41ZM43.0932 65.23C43.0932 65.8767 42.9198 66.3533 42.5732 66.66C42.2332 66.9667 41.7265 67.12 41.0532 67.12C40.6532 67.12 40.3298 67.0933 40.0832 67.04C39.8432 66.9933 39.6365 66.93 39.4632 66.85L39.6732 66.17C39.8265 66.23 39.9965 66.2867 40.1832 66.34C40.3698 66.3933 40.6132 66.42 40.9132 66.42C41.1932 66.42 41.4198 66.3933 41.5932 66.34C41.7732 66.2933 41.9165 66.21 42.0232 66.09C42.1298 65.9767 42.2032 65.8267 42.2432 65.64C42.2832 65.46 42.3032 65.2433 42.3032 64.99V64.51H42.2632C42.1298 64.7033 41.9598 64.8533 41.7532 64.96C41.5465 65.06 41.2765 65.11 40.9432 65.11C40.2698 65.11 39.7732 64.9 39.4532 64.48C39.1398 64.06 38.9832 63.4067 38.9832 62.52C38.9832 61.6667 39.1865 61.02 39.5932 60.58C39.9998 60.1333 40.5998 59.91 41.3932 59.91C41.7732 59.91 42.0965 59.94 42.3632 60C42.6365 60.06 42.8798 60.13 43.0932 60.21V65.23ZM41.0832 64.41C41.4232 64.41 41.6898 64.3267 41.8832 64.16C42.0765 63.9867 42.2132 63.72 42.2932 63.36V60.8C42.0265 60.6733 41.6865 60.61 41.2732 60.61C40.8198 60.61 40.4632 60.7633 40.2032 61.07C39.9432 61.3767 39.8132 61.8567 39.8132 62.51C39.8132 62.79 39.8365 63.0467 39.8832 63.28C39.9298 63.5133 40.0032 63.7133 40.1032 63.88C40.2032 64.0467 40.3332 64.1767 40.4932 64.27C40.6532 64.3633 40.8498 64.41 41.0832 64.41ZM44.8043 60H45.6043V65H44.8043V60ZM44.6343 58.48C44.6343 58.3267 44.6843 58.1967 44.7843 58.09C44.8909 57.9767 45.0243 57.92 45.1843 57.92C45.3443 57.92 45.4809 57.9767 45.5943 58.09C45.7076 58.1967 45.7643 58.3267 45.7643 58.48C45.7643 58.6333 45.7076 58.76 45.5943 58.86C45.4809 58.96 45.3443 59.01 45.1843 59.01C45.0243 59.01 44.8909 58.96 44.7843 58.86C44.6843 58.76 44.6343 58.6333 44.6343 58.48ZM47.23 60.37C47.4834 60.2167 47.7767 60.1033 48.11 60.03C48.45 59.9567 48.8034 59.92 49.17 59.92C49.5167 59.92 49.7934 59.9667 50 60.06C50.2134 60.1533 50.3734 60.2767 50.48 60.43C50.5934 60.5767 50.6667 60.74 50.7 60.92C50.74 61.1 50.76 61.28 50.76 61.46C50.76 61.86 50.75 62.25 50.73 62.63C50.71 63.01 50.7 63.37 50.7 63.71C50.7 63.9567 50.71 64.19 50.73 64.41C50.75 64.63 50.7867 64.8333 50.84 65.02H50.25L50.04 64.32H49.99C49.93 64.4133 49.8534 64.5067 49.76 64.6C49.6734 64.6867 49.5667 64.7667 49.44 64.84C49.3134 64.9067 49.1667 64.9633 49 65.01C48.8334 65.0567 48.6434 65.08 48.43 65.08C48.2167 65.08 48.0167 65.0467 47.83 64.98C47.65 64.9133 47.4934 64.82 47.36 64.7C47.2267 64.5733 47.12 64.4233 47.04 64.25C46.9667 64.0767 46.93 63.88 46.93 63.66C46.93 63.3667 46.99 63.1233 47.11 62.93C47.23 62.73 47.3967 62.5733 47.61 62.46C47.83 62.34 48.09 62.2567 48.39 62.21C48.6967 62.1567 49.0334 62.13 49.4 62.13C49.4934 62.13 49.5834 62.13 49.67 62.13C49.7634 62.13 49.8567 62.1367 49.95 62.15C49.97 61.95 49.98 61.77 49.98 61.61C49.98 61.2433 49.9067 60.9867 49.76 60.84C49.6134 60.6933 49.3467 60.62 48.96 60.62C48.8467 60.62 48.7234 60.63 48.59 60.65C48.4634 60.6633 48.33 60.6867 48.19 60.72C48.0567 60.7467 47.9267 60.7833 47.8 60.83C47.68 60.87 47.5734 60.9167 47.48 60.97L47.23 60.37ZM48.65 64.38C48.8367 64.38 49.0034 64.3567 49.15 64.31C49.2967 64.2567 49.4234 64.1933 49.53 64.12C49.6367 64.04 49.7234 63.9533 49.79 63.86C49.8634 63.7667 49.9167 63.6767 49.95 63.59V62.76C49.8567 62.7533 49.76 62.75 49.66 62.75C49.5667 62.7433 49.4734 62.74 49.38 62.74C49.1734 62.74 48.97 62.7533 48.77 62.78C48.5767 62.8 48.4034 62.8433 48.25 62.91C48.1034 62.97 47.9834 63.0567 47.89 63.17C47.8034 63.2767 47.76 63.4133 47.76 63.58C47.76 63.8133 47.8434 64.0067 48.01 64.16C48.1767 64.3067 48.39 64.38 48.65 64.38ZM11.7671 72H12.5671V77H11.7671V72ZM11.5971 70.48C11.5971 70.3267 11.6471 70.1967 11.7471 70.09C11.8538 69.9767 11.9871 69.92 12.1471 69.92C12.3071 69.92 12.4438 69.9767 12.5571 70.09C12.6705 70.1967 12.7271 70.3267 12.7271 70.48C12.7271 70.6333 12.6705 70.76 12.5571 70.86C12.4438 70.96 12.3071 71.01 12.1471 71.01C11.9871 71.01 11.8538 70.96 11.7471 70.86C11.6471 70.76 11.5971 70.6333 11.5971 70.48ZM17.4829 77V74.15C17.4829 73.63 17.4063 73.24 17.2529 72.98C17.1063 72.7133 16.8329 72.58 16.4329 72.58C16.0796 72.58 15.7863 72.6767 15.5529 72.87C15.3263 73.0567 15.1663 73.2933 15.0729 73.58V77H14.2729V72H14.8329L14.9829 72.61H15.0229C15.1829 72.3967 15.3963 72.2233 15.6629 72.09C15.9363 71.95 16.2596 71.88 16.6329 71.88C16.9063 71.88 17.1463 71.9133 17.3529 71.98C17.5596 72.04 17.7296 72.15 17.8629 72.31C18.0029 72.47 18.1063 72.6867 18.1729 72.96C18.2463 73.2267 18.2829 73.5667 18.2829 73.98V77H17.4829ZM19.0817 72H19.8617V71.01L20.6617 70.78V72H22.0217V72.7H20.6617V75.47C20.6617 75.8167 20.705 76.0633 20.7917 76.21C20.8783 76.35 21.025 76.42 21.2317 76.42C21.405 76.42 21.5517 76.4033 21.6717 76.37C21.7917 76.33 21.925 76.28 22.0717 76.22L22.2517 76.83C22.0717 76.9167 21.875 76.9867 21.6617 77.04C21.4483 77.0933 21.2183 77.12 20.9717 77.12C20.565 77.12 20.2783 77.0067 20.1117 76.78C19.945 76.5467 19.8617 76.16 19.8617 75.62V72.7H19.0817V72ZM26.6729 76.6C26.4729 76.76 26.2196 76.8867 25.9129 76.98C25.6129 77.0733 25.2929 77.12 24.9529 77.12C24.5729 77.12 24.2429 77.06 23.9629 76.94C23.6829 76.8133 23.4529 76.6367 23.2729 76.41C23.0929 76.1767 22.9596 75.9 22.8729 75.58C22.7863 75.26 22.7429 74.9 22.7429 74.5C22.7429 73.6467 22.9329 72.9967 23.3129 72.55C23.6929 72.1033 24.2363 71.88 24.9429 71.88C25.1696 71.88 25.3963 71.9067 25.6229 71.96C25.8496 72.0067 26.0529 72.1 26.2329 72.24C26.4129 72.38 26.5596 72.58 26.6729 72.84C26.7863 73.0933 26.8429 73.43 26.8429 73.85C26.8429 74.07 26.8229 74.3133 26.7829 74.58H23.5729C23.5729 74.8733 23.6029 75.1333 23.6629 75.36C23.7229 75.5867 23.8163 75.78 23.9429 75.94C24.0696 76.0933 24.2329 76.2133 24.4329 76.3C24.6396 76.38 24.8896 76.42 25.1829 76.42C25.4096 76.42 25.6363 76.38 25.8629 76.3C26.0896 76.22 26.2596 76.1267 26.3729 76.02L26.6729 76.6ZM24.9529 72.58C24.5596 72.58 24.2429 72.6833 24.0029 72.89C23.7696 73.0967 23.6296 73.45 23.5829 73.95H26.0629C26.0629 73.4433 25.9663 73.09 25.7729 72.89C25.5796 72.6833 25.3063 72.58 24.9529 72.58ZM30.4611 72.77C30.2611 72.7033 30.0711 72.67 29.8911 72.67C29.6044 72.67 29.3777 72.75 29.2111 72.91C29.0444 73.0633 28.9411 73.26 28.9011 73.5V77H28.1011V72H28.6611L28.8111 72.61H28.8511C28.9777 72.3833 29.1277 72.21 29.3011 72.09C29.4811 71.9633 29.7077 71.9 29.9811 71.9C30.1744 71.9 30.3911 71.9333 30.6311 72L30.4611 72.77ZM34.9095 76.67C34.7095 76.8167 34.4728 76.9267 34.1995 77C33.9262 77.08 33.6395 77.12 33.3395 77.12C32.9528 77.12 32.6262 77.06 32.3595 76.94C32.0928 76.8133 31.8728 76.6367 31.6995 76.41C31.5328 76.1767 31.4095 75.9 31.3295 75.58C31.2562 75.2533 31.2195 74.8933 31.2195 74.5C31.2195 73.6533 31.4062 73.0067 31.7795 72.56C32.1528 72.1067 32.6895 71.88 33.3895 71.88C33.7095 71.88 33.9795 71.9067 34.1995 71.96C34.4262 72.0067 34.6295 72.0767 34.8095 72.17L34.5795 72.86C34.4262 72.7733 34.2562 72.7067 34.0695 72.66C33.8828 72.6067 33.6828 72.58 33.4695 72.58C32.5228 72.58 32.0495 73.22 32.0495 74.5C32.0495 74.7533 32.0728 74.9967 32.1195 75.23C32.1728 75.4567 32.2562 75.66 32.3695 75.84C32.4895 76.0133 32.6428 76.1533 32.8295 76.26C33.0228 76.3667 33.2595 76.42 33.5395 76.42C33.7795 76.42 33.9928 76.3833 34.1795 76.31C34.3728 76.2367 34.5295 76.1533 34.6495 76.06L34.9095 76.67ZM39.4268 76.6C39.2268 76.76 38.9735 76.8867 38.6668 76.98C38.3668 77.0733 38.0468 77.12 37.7068 77.12C37.3268 77.12 36.9968 77.06 36.7168 76.94C36.4368 76.8133 36.2068 76.6367 36.0268 76.41C35.8468 76.1767 35.7135 75.9 35.6268 75.58C35.5402 75.26 35.4968 74.9 35.4968 74.5C35.4968 73.6467 35.6868 72.9967 36.0668 72.55C36.4468 72.1033 36.9902 71.88 37.6968 71.88C37.9235 71.88 38.1502 71.9067 38.3768 71.96C38.6035 72.0067 38.8068 72.1 38.9868 72.24C39.1668 72.38 39.3135 72.58 39.4268 72.84C39.5402 73.0933 39.5968 73.43 39.5968 73.85C39.5968 74.07 39.5768 74.3133 39.5368 74.58H36.3268C36.3268 74.8733 36.3568 75.1333 36.4168 75.36C36.4768 75.5867 36.5702 75.78 36.6968 75.94C36.8235 76.0933 36.9868 76.2133 37.1868 76.3C37.3935 76.38 37.6435 76.42 37.9368 76.42C38.1635 76.42 38.3902 76.38 38.6168 76.3C38.8435 76.22 39.0135 76.1267 39.1268 76.02L39.4268 76.6ZM37.7068 72.58C37.3135 72.58 36.9968 72.6833 36.7568 72.89C36.5235 73.0967 36.3835 73.45 36.3368 73.95H38.8168C38.8168 73.4433 38.7202 73.09 38.5268 72.89C38.3335 72.6833 38.0602 72.58 37.7068 72.58ZM40.195 72H40.975V71.01L41.775 70.78V72H43.135V72.7H41.775V75.47C41.775 75.8167 41.8183 76.0633 41.905 76.21C41.9916 76.35 42.1383 76.42 42.345 76.42C42.5183 76.42 42.665 76.4033 42.785 76.37C42.905 76.33 43.0383 76.28 43.185 76.22L43.365 76.83C43.185 76.9167 42.9883 76.9867 42.775 77.04C42.5616 77.0933 42.3316 77.12 42.085 77.12C41.6783 77.12 41.3916 77.0067 41.225 76.78C41.0583 76.5467 40.975 76.16 40.975 75.62V72.7H40.195V72ZM43.5836 72H44.3636V71.01L45.1636 70.78V72H46.5236V72.7H45.1636V75.47C45.1636 75.8167 45.207 76.0633 45.2936 76.21C45.3803 76.35 45.527 76.42 45.7336 76.42C45.907 76.42 46.0536 76.4033 46.1736 76.37C46.2936 76.33 46.427 76.28 46.5736 76.22L46.7536 76.83C46.5736 76.9167 46.377 76.9867 46.1636 77.04C45.9503 77.0933 45.7203 77.12 45.4736 77.12C45.067 77.12 44.7803 77.0067 44.6136 76.78C44.447 76.5467 44.3636 76.16 44.3636 75.62V72.7H43.5836V72ZM47.5523 72.37C47.8056 72.2167 48.099 72.1033 48.4323 72.03C48.7723 71.9567 49.1256 71.92 49.4923 71.92C49.839 71.92 50.1156 71.9667 50.3223 72.06C50.5356 72.1533 50.6956 72.2767 50.8023 72.43C50.9156 72.5767 50.989 72.74 51.0223 72.92C51.0623 73.1 51.0823 73.28 51.0823 73.46C51.0823 73.86 51.0723 74.25 51.0523 74.63C51.0323 75.01 51.0223 75.37 51.0223 75.71C51.0223 75.9567 51.0323 76.19 51.0523 76.41C51.0723 76.63 51.109 76.8333 51.1623 77.02H50.5723L50.3623 76.32H50.3123C50.2523 76.4133 50.1756 76.5067 50.0823 76.6C49.9956 76.6867 49.889 76.7667 49.7623 76.84C49.6356 76.9067 49.489 76.9633 49.3223 77.01C49.1556 77.0567 48.9656 77.08 48.7523 77.08C48.539 77.08 48.339 77.0467 48.1523 76.98C47.9723 76.9133 47.8156 76.82 47.6823 76.7C47.549 76.5733 47.4423 76.4233 47.3623 76.25C47.289 76.0767 47.2523 75.88 47.2523 75.66C47.2523 75.3667 47.3123 75.1233 47.4323 74.93C47.5523 74.73 47.719 74.5733 47.9323 74.46C48.1523 74.34 48.4123 74.2567 48.7123 74.21C49.019 74.1567 49.3556 74.13 49.7223 74.13C49.8156 74.13 49.9056 74.13 49.9923 74.13C50.0856 74.13 50.179 74.1367 50.2723 74.15C50.2923 73.95 50.3023 73.77 50.3023 73.61C50.3023 73.2433 50.229 72.9867 50.0823 72.84C49.9356 72.6933 49.669 72.62 49.2823 72.62C49.169 72.62 49.0456 72.63 48.9123 72.65C48.7856 72.6633 48.6523 72.6867 48.5123 72.72C48.379 72.7467 48.249 72.7833 48.1223 72.83C48.0023 72.87 47.8956 72.9167 47.8023 72.97L47.5523 72.37ZM48.9723 76.38C49.159 76.38 49.3256 76.3567 49.4723 76.31C49.619 76.2567 49.7456 76.1933 49.8523 76.12C49.959 76.04 50.0456 75.9533 50.1123 75.86C50.1856 75.7667 50.239 75.6767 50.2723 75.59V74.76C50.179 74.7533 50.0823 74.75 49.9823 74.75C49.889 74.7433 49.7956 74.74 49.7023 74.74C49.4956 74.74 49.2923 74.7533 49.0923 74.78C48.899 74.8 48.7256 74.8433 48.5723 74.91C48.4256 74.97 48.3056 75.0567 48.2123 75.17C48.1256 75.2767 48.0823 75.4133 48.0823 75.58C48.0823 75.8133 48.1656 76.0067 48.3323 76.16C48.499 76.3067 48.7123 76.38 48.9723 76.38ZM51.9332 72H52.7132V71.01L53.5132 70.78V72H54.8732V72.7H53.5132V75.47C53.5132 75.8167 53.5566 76.0633 53.6432 76.21C53.7299 76.35 53.8766 76.42 54.0832 76.42C54.2566 76.42 54.4032 76.4033 54.5232 76.37C54.6432 76.33 54.7766 76.28 54.9232 76.22L55.1032 76.83C54.9232 76.9167 54.7266 76.9867 54.5132 77.04C54.2999 77.0933 54.0699 77.12 53.8232 77.12C53.4166 77.12 53.1299 77.0067 52.9632 76.78C52.7966 76.5467 52.7132 76.16 52.7132 75.62V72.7H51.9332V72ZM55.9019 72.37C56.1552 72.2167 56.4486 72.1033 56.7819 72.03C57.1219 71.9567 57.4752 71.92 57.8419 71.92C58.1886 71.92 58.4652 71.9667 58.6719 72.06C58.8852 72.1533 59.0452 72.2767 59.1519 72.43C59.2652 72.5767 59.3386 72.74 59.3719 72.92C59.4119 73.1 59.4319 73.28 59.4319 73.46C59.4319 73.86 59.4219 74.25 59.4019 74.63C59.3819 75.01 59.3719 75.37 59.3719 75.71C59.3719 75.9567 59.3819 76.19 59.4019 76.41C59.4219 76.63 59.4586 76.8333 59.5119 77.02H58.9219L58.7119 76.32H58.6619C58.6019 76.4133 58.5252 76.5067 58.4319 76.6C58.3452 76.6867 58.2386 76.7667 58.1119 76.84C57.9852 76.9067 57.8386 76.9633 57.6719 77.01C57.5052 77.0567 57.3152 77.08 57.1019 77.08C56.8886 77.08 56.6886 77.0467 56.5019 76.98C56.3219 76.9133 56.1652 76.82 56.0319 76.7C55.8986 76.5733 55.7919 76.4233 55.7119 76.25C55.6386 76.0767 55.6019 75.88 55.6019 75.66C55.6019 75.3667 55.6619 75.1233 55.7819 74.93C55.9019 74.73 56.0686 74.5733 56.2819 74.46C56.5019 74.34 56.7619 74.2567 57.0619 74.21C57.3686 74.1567 57.7052 74.13 58.0719 74.13C58.1652 74.13 58.2552 74.13 58.3419 74.13C58.4352 74.13 58.5286 74.1367 58.6219 74.15C58.6419 73.95 58.6519 73.77 58.6519 73.61C58.6519 73.2433 58.5786 72.9867 58.4319 72.84C58.2852 72.6933 58.0186 72.62 57.6319 72.62C57.5186 72.62 57.3952 72.63 57.2619 72.65C57.1352 72.6633 57.0019 72.6867 56.8619 72.72C56.7286 72.7467 56.5986 72.7833 56.4719 72.83C56.3519 72.87 56.2452 72.9167 56.1519 72.97L55.9019 72.37ZM57.3219 76.38C57.5086 76.38 57.6752 76.3567 57.8219 76.31C57.9686 76.2567 58.0952 76.1933 58.2019 76.12C58.3086 76.04 58.3952 75.9533 58.4619 75.86C58.5352 75.7667 58.5886 75.6767 58.6219 75.59V74.76C58.5286 74.7533 58.4319 74.75 58.3319 74.75C58.2386 74.7433 58.1452 74.74 58.0519 74.74C57.8452 74.74 57.6419 74.7533 57.4419 74.78C57.2486 74.8 57.0752 74.8433 56.9219 74.91C56.7752 74.97 56.6552 75.0567 56.5619 75.17C56.4752 75.2767 56.4319 75.4133 56.4319 75.58C56.4319 75.8133 56.5152 76.0067 56.6819 76.16C56.8486 76.3067 57.0619 76.38 57.3219 76.38Z" fill="#444444"/>
<path d="M13.7861 49.27H12.2461V52H10.5521V49.27H6.3101V48.234L10.7481 42.13H12.2461V47.814H13.7861V49.27ZM10.5521 45.672L10.6781 44.496H10.6221L10.1461 45.504L8.6901 47.394L7.9901 47.926L8.8861 47.814H10.5521V45.672ZM14.2675 47.086C14.2675 45.3687 14.5615 44.0947 15.1495 43.264C15.7375 42.424 16.5821 42.004 17.6835 42.004C18.8595 42.004 19.7228 42.4193 20.2735 43.25C20.8241 44.0713 21.0995 45.35 21.0995 47.086C21.0995 48.8127 20.8008 50.096 20.2035 50.936C19.6155 51.776 18.7708 52.196 17.6695 52.196C16.5028 52.196 15.6441 51.7573 15.0935 50.88C14.5428 49.9933 14.2675 48.7287 14.2675 47.086ZM16.0875 47.086C16.0875 48.2247 16.2088 49.1067 16.4515 49.732C16.7035 50.348 17.1141 50.656 17.6835 50.656C18.2341 50.656 18.6355 50.3713 18.8875 49.802C19.1488 49.2327 19.2795 48.3273 19.2795 47.086C19.2795 45.9567 19.1581 45.084 18.9155 44.468C18.6728 43.852 18.2575 43.544 17.6695 43.544C17.1095 43.544 16.7035 43.8333 16.4515 44.412C16.2088 44.9907 16.0875 45.882 16.0875 47.086ZM21.9588 51.104C21.9588 50.7867 22.0615 50.5347 22.2668 50.348C22.4815 50.1613 22.7428 50.068 23.0508 50.068C23.4428 50.068 23.7508 50.1987 23.9748 50.46C24.1988 50.7213 24.3108 51.0667 24.3108 51.496C24.3108 51.916 24.2455 52.2753 24.1148 52.574C23.9842 52.882 23.8208 53.134 23.6248 53.33C23.4382 53.5353 23.2328 53.694 23.0088 53.806C22.7942 53.9273 22.5982 54.016 22.4208 54.072L21.8888 53.316C22.1408 53.2133 22.3602 53.0453 22.5468 52.812C22.7335 52.5787 22.8362 52.3313 22.8548 52.07C22.6402 52.098 22.4348 52.0327 22.2388 51.874C22.0522 51.7153 21.9588 51.4587 21.9588 51.104ZM25.6904 50.46H27.6364V44.93L27.8464 43.978L27.1744 44.804L25.9284 45.658L25.1584 44.608L28.3504 42.032H29.3724V50.46H31.2764V52H25.6904V50.46ZM39.9747 52V48.192C39.9747 47.548 39.9141 47.0907 39.7927 46.82C39.6714 46.5493 39.4194 46.414 39.0367 46.414C38.7194 46.414 38.4627 46.5027 38.2667 46.68C38.0707 46.848 37.9214 47.0673 37.8187 47.338V52H35.9987V45H37.4127L37.6227 45.924H37.6787C37.8934 45.6253 38.1641 45.364 38.4907 45.14C38.8267 44.916 39.2561 44.804 39.7787 44.804C40.2267 44.804 40.5907 44.8973 40.8707 45.084C41.1601 45.2613 41.3841 45.5647 41.5427 45.994C41.7574 45.63 42.0327 45.3407 42.3687 45.126C42.7047 44.9113 43.1107 44.804 43.5867 44.804C43.9787 44.804 44.3101 44.8507 44.5807 44.944C44.8607 45.0373 45.0847 45.2007 45.2527 45.434C45.4301 45.658 45.5607 45.9613 45.6447 46.344C45.7287 46.7267 45.7707 47.212 45.7707 47.8V52H43.9507V48.066C43.9507 47.5153 43.8901 47.1047 43.7687 46.834C43.6567 46.554 43.4001 46.414 42.9987 46.414C42.6721 46.414 42.4107 46.5027 42.2147 46.68C42.0281 46.8573 41.8881 47.1 41.7947 47.408V52H39.9747ZM48.5384 45.448C48.9584 45.448 49.2524 45.3827 49.4204 45.252C49.5977 45.1213 49.691 44.9487 49.7004 44.734C49.691 44.5193 49.5977 44.3513 49.4204 44.23C49.243 44.1087 48.9164 44.048 48.4404 44.048H47.8384V43.516L48.8604 42.396L49.4624 42.046L48.6504 42.13H47.0404V40.8H51.0164V41.668L49.7844 42.956L49.3084 43.208V43.278L49.7284 43.236C50.223 43.2547 50.6057 43.404 50.8764 43.684C51.1564 43.9547 51.301 44.342 51.3104 44.846C51.301 45.182 51.2264 45.4713 51.0864 45.714C50.9557 45.9567 50.7737 46.1573 50.5404 46.316C50.3164 46.4747 50.0504 46.5913 49.7424 46.666C49.4344 46.7407 49.1124 46.778 48.7764 46.778C48.4217 46.778 48.0857 46.75 47.7684 46.694C47.4604 46.6287 47.1944 46.5447 46.9704 46.442L47.2924 45.182C47.675 45.3593 48.0904 45.448 48.5384 45.448Z" fill="#444444"/>
<g clip-path="url(#clip1_3684_12628)">
<circle cx="61" cy="48" r="5" fill="#D5D5D5"/>
<path d="M61.292 44.9004C61.4824 44.9004 61.6436 44.9678 61.7754 45.1025C61.9072 45.2344 61.9731 45.394 61.9731 45.5815C61.9731 45.769 61.9058 45.9287 61.771 46.0605C61.6392 46.1924 61.4795 46.2583 61.292 46.2583C61.1045 46.2583 60.9448 46.1924 60.813 46.0605C60.6812 45.9287 60.6152 45.769 60.6152 45.5815C60.6152 45.394 60.6812 45.2344 60.813 45.1025C60.9448 44.9678 61.1045 44.9004 61.292 44.9004ZM61.9072 46.8911V50.1475C61.9072 50.4375 61.9409 50.6235 62.0083 50.7056C62.0757 50.7847 62.2075 50.8301 62.4038 50.8418V51H60.1846V50.8418C60.3662 50.8359 60.501 50.7832 60.5889 50.6836C60.6475 50.6162 60.6768 50.4375 60.6768 50.1475V47.748C60.6768 47.458 60.6431 47.2734 60.5757 47.1943C60.5083 47.1123 60.3779 47.0654 60.1846 47.0537V46.8911H61.9072Z" fill="white"/>
</g>
<ellipse cx="36.2571" cy="16.2" rx="16.2" ry="16.2" fill="#88CCFF"/>
<path d="M38.0976 10.0273C38.3585 10.3181 38.6806 10.6804 39.0448 11.1025C40.0532 12.2711 41.3883 13.8887 42.7021 15.6904C44.0192 17.4968 45.2974 19.4648 46.205 21.335C47.128 23.2371 47.5966 24.8971 47.4726 26.1377C46.9629 31.233 43.4123 34.9998 38.0956 35C32.765 35 29.1417 31.2296 28.7187 26.1543C28.6147 24.9064 29.0988 23.2395 30.0273 21.3359C30.9404 19.4639 32.2162 17.4951 33.5273 15.6885C34.8353 13.886 36.1623 12.2684 37.163 11.0996C37.5228 10.6794 37.8394 10.3175 38.0976 10.0273Z" stroke="#444444" stroke-width="2" stroke-linecap="round" stroke-linejoin="round"/>
<path d="M25.3112 2.47021C25.7788 3.03439 26.3968 3.81396 27.0036 4.68018C27.6133 5.55058 28.1952 6.48568 28.6042 7.36279C29.0272 8.27034 29.2013 8.98328 29.1559 9.45557C28.9349 11.7544 27.4353 13.3236 25.2799 13.3237C23.1117 13.3237 21.5872 11.7466 21.4049 9.47119C21.3666 8.99204 21.5484 8.27363 21.9743 7.36475C22.3862 6.48562 22.9677 5.54913 23.5749 4.67822C24.1791 3.81146 24.7933 3.03165 25.2575 2.46729C25.2659 2.45704 25.2745 2.44711 25.2829 2.43701C25.2921 2.44812 25.3018 2.45893 25.3112 2.47021Z" stroke="#444444" stroke-width="2" stroke-linecap="round" stroke-linejoin="round"/>
<path d="M48.4691 3.96143C48.7909 4.34491 49.1814 4.82935 49.5639 5.35889C50.0164 5.98531 50.4421 6.65025 50.7387 7.26709C51.0505 7.91579 51.1512 8.37398 51.1254 8.63428C50.9731 10.1699 49.9546 11.2034 48.4672 11.2036C46.966 11.2036 45.9347 10.1606 45.81 8.6499C45.788 8.38247 45.8944 7.91884 46.2084 7.26904C46.5075 6.65005 46.9344 5.98396 47.3852 5.35693C47.765 4.82866 48.1503 4.34451 48.4691 3.96143Z" stroke="#444444" stroke-width="2" stroke-linecap="round" stroke-linejoin="round"/>
</g>
<defs>
<clipPath id="clip0_3684_12628">
<rect width="71" height="92" fill="white"/>
</clipPath>
<clipPath id="clip1_3684_12628">
<rect width="10" height="10" fill="white" transform="translate(56 43)"/>
</clipPath>
</defs>
</svg>
