<svg width="36" height="36" viewBox="0 0 36 36" fill="none" xmlns="http://www.w3.org/2000/svg">
<g clip-path="url(#clip0_3684_12611)">
<ellipse cx="18" cy="17.25" rx="15.75" ry="15.75" fill="#68B9C6"/>
<path d="M25.2804 0.375C26.7518 0.375 28.1725 0.682744 29.5021 1.29004C29.8512 1.4497 30.0052 1.86252 29.8458 2.21191C29.6862 2.5614 29.2733 2.71503 28.9239 2.55566C27.7771 2.03187 26.5509 1.7666 25.2804 1.7666C20.4396 1.76666 16.5011 5.70504 16.5011 10.5459C16.5011 15.3237 20.5012 19.3251 25.2804 19.3252C30.1212 19.3252 34.0596 15.3867 34.0597 10.5459C34.0597 9.08889 33.6958 7.6458 33.0069 6.37305C32.824 6.0351 32.9493 5.61261 33.2872 5.42969C33.6252 5.24691 34.0477 5.37309 34.2306 5.71094C35.0292 7.1864 35.4512 8.85839 35.4513 10.5459C35.4512 16.154 30.8885 20.7168 25.2804 20.7168C23.8679 20.7168 22.5216 20.427 21.298 19.9043C21.078 21.7221 20.2842 23.4176 19.006 24.7637C17.6355 26.2068 15.8358 27.116 13.8839 27.3643V31.2666C13.8839 32.0881 14.1761 32.8863 14.7052 33.5146L15.6163 34.5977H25.4591C25.8432 34.5977 26.1543 34.9088 26.1544 35.293C26.1544 35.6772 25.8433 35.9999 25.4591 36H4.23937C3.85526 35.9998 3.54406 35.6771 3.54406 35.293C3.54412 34.9089 3.85529 34.5979 4.23937 34.5977H6.56457L7.4757 33.5146C8.0047 32.8863 8.29601 32.088 8.29601 31.2666V27.4336H6.9005C3.34948 27.4336 0.44314 24.5773 0.421987 21.0664C0.413396 19.6037 0.897674 18.2 1.79503 17.0625C1.48681 16.4138 1.3263 15.7017 1.32628 14.9766C1.32628 12.2975 3.50557 10.1182 6.18468 10.1182C7.25572 10.1182 8.28362 10.4676 9.12707 11.1113C10.2666 10.5735 11.5228 10.291 12.7892 10.291C13.5822 10.291 14.3593 10.3973 15.1105 10.6084C15.1104 10.5875 15.1095 10.5668 15.1095 10.5459C15.1095 4.93778 19.6723 0.375062 25.2804 0.375ZM0.45812 35.5225C0.254342 34.9075 0.967158 34.3672 1.50402 34.7256C1.77336 34.9017 1.88228 35.2586 1.76574 35.5566C1.53309 36.1506 0.659006 36.1279 0.45812 35.5225ZM14.6652 18.751C14.4424 18.409 13.9446 18.3356 13.6359 18.6143L12.1446 19.9609L9.45812 22.3877C9.21758 22.605 8.8655 22.6242 8.60558 22.4502L8.50011 22.3633L7.74914 21.6133C7.48946 21.3536 7.04508 21.3535 6.78527 21.6133C6.49492 21.8775 6.43999 22.3295 6.72472 22.623L9.49132 25.4746C9.61726 25.6044 9.68761 25.7791 9.68761 25.96V31.2666C9.68761 32.4155 9.28017 33.5323 8.54015 34.4111L8.38488 34.5967H13.797L13.6398 34.4111C12.8998 33.5323 12.4923 32.4155 12.4923 31.2666V21.8896C12.4924 21.6997 12.5708 21.518 12.7081 21.3867L14.5636 19.6133C14.7969 19.3902 14.8417 19.0227 14.6652 18.751ZM26.2472 22.1533C26.6311 22.1536 26.9424 22.4645 26.9425 22.8486V23.5146C26.9425 25.4406 25.4018 27.0128 23.4884 27.0654L23.9347 27.5947C24.1823 27.8886 24.1445 28.3276 23.8507 28.5752C23.7202 28.6852 23.5607 28.7393 23.4025 28.7393C23.2045 28.7392 23.0078 28.6544 22.8702 28.4912L21.462 26.8203C21.2531 26.5732 21.2462 26.2016 21.4435 25.9463L22.8517 24.123C23.0865 23.8189 23.5232 23.7624 23.8273 23.9971C24.1314 24.2318 24.1878 24.6685 23.9532 24.9727L23.4103 25.6758C24.5922 25.6644 25.5509 24.6993 25.5509 23.5146V22.8486C25.551 22.4644 25.863 22.1533 26.2472 22.1533ZM6.18468 11.5088C4.27295 11.5089 2.71789 13.0647 2.71789 14.9766C2.71792 15.6178 2.89425 16.2444 3.22765 16.7881C3.39016 17.0537 3.35598 17.3953 3.14464 17.624C2.27875 18.5611 1.80594 19.781 1.81359 21.0586C1.83005 23.8067 4.11231 26.042 6.9005 26.042H8.10265L5.7257 23.5928C4.87432 22.7153 5.00571 21.3196 5.90246 20.5342C6.71546 19.8212 7.96951 19.8703 8.73351 20.6289L9.01671 20.9121L11.8048 18.3936L12.7032 17.582C13.5642 16.8045 14.9377 16.9038 15.6837 17.791C16.3755 18.6148 16.3036 19.8765 15.5255 20.6201L13.8849 22.1885V25.96C17.2416 25.4508 19.7962 22.6427 19.9611 19.2158C17.4432 17.6675 15.6815 15.0295 15.2296 12.1074C14.4495 11.8254 13.6299 11.6826 12.7892 11.6826C11.5934 11.6826 10.4088 11.9827 9.36339 12.5508C9.09989 12.6941 8.7737 12.6525 8.5548 12.4473C7.90925 11.8423 7.06739 11.5088 6.18468 11.5088ZM29.881 10.0352C30.5522 10.0353 31.1713 10.4674 31.4025 11.0977C31.6489 11.7703 31.363 12.4252 30.9737 12.9814C30.7708 13.2715 30.596 13.5164 30.4464 13.7227C30.614 13.7213 30.7855 13.7199 30.9513 13.7178C30.9541 13.7177 30.9572 13.7178 30.9601 13.7178C31.3402 13.7178 31.6515 14.0232 31.6564 14.4043C31.6612 14.7885 31.3531 15.1046 30.9689 15.1094C30.4511 15.1159 28.9879 15.0978 28.8956 15.0674C28.6752 14.994 28.5032 14.8192 28.4357 14.5996C28.3224 14.2317 28.507 13.9894 28.7413 13.6826C28.9239 13.4435 29.264 12.9982 29.8341 12.1836C30.0042 11.9404 30.0748 11.7723 30.1036 11.668C30.1338 11.3976 29.7072 11.3436 29.6544 11.6113C29.5804 11.9884 29.2142 12.2345 28.837 12.1602C28.4603 12.0859 28.2153 11.7206 28.2892 11.3438C28.438 10.5855 29.1074 10.0352 29.881 10.0352ZM20.8155 7.56934C21.3146 7.56934 21.7967 7.71645 22.2091 7.99512C22.5274 8.2103 22.6107 8.64259 22.3956 8.96094C22.1804 9.27916 21.748 9.36341 21.4298 9.14844C21.2484 9.02584 21.036 8.96094 20.8155 8.96094C20.2093 8.96099 19.7159 9.45419 19.7159 10.0605C19.7161 10.6668 20.2093 11.1601 20.8155 11.1602C21.0452 11.1602 21.2634 11.0799 21.4132 10.9014C21.66 10.607 22.0994 10.5688 22.3937 10.8154C22.6881 11.0624 22.7266 11.5015 22.4796 11.7959C22.0664 12.2882 21.4546 12.5518 20.8155 12.5518C19.442 12.5517 18.3245 11.434 18.3243 10.0605C18.3243 8.68693 19.4419 7.56939 20.8155 7.56934ZM25.4591 7.56934C26.8328 7.56937 27.9503 8.68685 27.9503 10.0605C27.9501 11.434 26.8327 12.5517 25.4591 12.5518C24.0856 12.5518 22.9681 11.434 22.9679 10.0605C22.9679 8.68683 24.0854 7.56934 25.4591 7.56934ZM25.4591 8.96094C24.8528 8.96094 24.3595 9.45416 24.3595 10.0605C24.3597 10.6668 24.8529 11.1602 25.4591 11.1602C26.0653 11.1601 26.5585 10.6667 26.5587 10.0605C26.5587 9.4542 26.0655 8.96101 25.4591 8.96094ZM14.6837 3.00098C15.0678 3.00109 15.3789 3.3122 15.379 3.69629C15.379 4.08051 15.0679 4.39246 14.6837 4.39258H14.0177C12.8332 4.39258 11.8682 5.35036 11.8566 6.53223L12.5597 5.99023C12.8639 5.75565 13.3005 5.81147 13.5353 6.11523C13.7702 6.41944 13.7134 6.85696 13.4093 7.0918L11.5861 8.5C11.3301 8.69754 10.9599 8.68998 10.712 8.48145L9.04113 7.07324C8.74732 6.82563 8.70958 6.38661 8.95714 6.09277C9.20478 5.79887 9.64377 5.76115 9.93761 6.00879L10.4669 6.45508C10.5194 4.54148 12.0917 3.00098 14.0177 3.00098H14.6837ZM31.5607 3.05371C31.9114 2.90857 32.3241 3.08061 32.4698 3.43066C32.6153 3.78053 32.4437 4.19412 32.0939 4.33887C31.7443 4.48319 31.3297 4.3136 31.1857 3.96289C31.0403 3.61378 31.2113 3.19857 31.5607 3.05371Z" fill="#444444"/>
</g>
<defs>
<clipPath id="clip0_3684_12611">
<rect width="36" height="36" fill="white"/>
</clipPath>
</defs>
</svg>
