<svg width="36" height="36" viewBox="0 0 36 36" fill="none" xmlns="http://www.w3.org/2000/svg">
<ellipse cx="18.2571" cy="16.2" rx="16.2" ry="16.2" fill="#FFD6B0"/>
<path d="M16.7061 1.40642C13.4155 1.99705 10.7436 4.28924 9.77331 7.32674C8.40925 11.658 10.3358 16.0877 14.428 18.0283C18.6046 19.997 23.8218 18.183 25.8608 14.0486C26.8171 12.108 27.0702 10.2377 26.6483 8.2408C25.9733 5.06267 23.4843 2.44705 20.3483 1.6033C19.4061 1.35017 17.5499 1.25174 16.7061 1.40642ZM19.5608 2.86892C22.0218 3.4033 24.0749 5.18924 25.0311 7.66424C25.2983 8.33924 25.3686 8.78924 25.3686 9.98455C25.3827 11.8127 25.0593 12.8814 24.0327 14.3299C23.203 15.5252 21.8108 16.5658 20.4186 17.0439C19.0827 17.4939 16.8889 17.4939 15.6796 17.0158C12.3186 15.722 10.3217 12.4595 10.7999 9.07049C11.0389 7.4533 11.7139 6.11736 12.9093 4.92205C14.7655 3.0658 17.0858 2.34861 19.5608 2.86892Z" fill="#444444"/>
<path d="M17.6062 3.69844C17.5219 3.79687 17.4375 4.12031 17.4094 4.41562C17.3812 4.87969 17.2828 5.00625 16.875 5.24531C15.7781 5.85 15.1875 6.75 15.1875 7.875C15.1875 9.50625 16.6078 10.8281 18.3516 10.8281C18.5906 10.8281 18.8859 10.9828 19.1391 11.2641C20.3203 12.5297 18.7312 14.4422 17.2969 13.4719C16.9453 13.2328 16.7625 12.9797 16.6641 12.5719C16.425 11.5734 15.9047 11.25 15.4266 11.7844C14.7656 12.5156 15.5812 14.2453 16.9172 14.9203C17.3812 15.1594 17.4375 15.2578 17.4375 15.7219C17.4375 16.3266 17.6344 16.5938 18.0844 16.5938C18.4922 16.5938 18.8437 16.1016 18.8437 15.5109C18.8437 15.1875 18.9141 15.0469 19.1391 14.9766C19.5891 14.8219 20.3766 14.0625 20.6859 13.4859C21.1641 12.5297 20.9531 11.0953 20.2078 10.2937C19.8141 9.87187 18.9562 9.42187 18.5344 9.42187C18.3516 9.42187 17.9719 9.35156 17.6766 9.26719C17.0859 9.1125 16.5937 8.47969 16.5937 7.875C16.5937 6.90469 17.7047 6.11719 18.5766 6.46875C19.125 6.69375 19.5469 7.25625 19.5469 7.73438C19.5469 8.29688 20.0109 8.6625 20.5031 8.49375C20.8266 8.38125 20.8828 8.26875 20.925 7.77656C20.9953 6.80625 20.1797 5.56875 19.2375 5.21719C18.9141 5.09062 18.8437 4.97812 18.8437 4.59844C18.8437 4.34531 18.7453 3.99375 18.6187 3.825C18.3797 3.4875 17.8312 3.41719 17.6062 3.69844Z" fill="#444444"/>
<path d="M31.7815 18.703C31.5143 18.8436 30.1502 20.1796 28.758 21.6561C26.6205 23.9483 25.1158 25.3124 24.7361 25.3124C24.6799 25.3124 24.6096 24.9327 24.5815 24.4827C24.5252 23.6108 24.1033 22.8655 23.4424 22.4296C23.2736 22.3311 21.783 21.8249 20.1377 21.3186C14.7658 19.6593 14.7096 19.6593 8.0299 22.3593C6.6799 22.8936 5.56896 23.3296 5.5549 23.3015C5.54084 23.2874 5.3299 22.9218 5.09084 22.4858C4.5424 21.5155 4.33146 21.3186 3.92365 21.4452C3.58615 21.5577 0.633027 23.3858 0.253339 23.7374C-0.0982233 24.0327 -0.0560358 24.4265 0.337714 24.6796C0.745527 24.9468 0.872089 24.9046 2.50334 23.864C3.22053 23.3999 3.82521 23.0483 3.85334 23.0765C4.00803 23.2733 9.28146 32.653 9.28146 32.7374C9.28146 32.7937 8.60646 33.2155 7.77678 33.6796C5.97678 34.6921 5.62521 34.9593 5.62521 35.2827C5.62521 35.6483 6.1174 36.0421 6.44084 35.9437C7.1299 35.7187 10.7721 33.4968 10.8987 33.2296C11.0252 32.9202 11.0533 32.9202 17.3674 32.878C23.0065 32.8218 23.7799 32.7937 24.469 32.5687C26.2549 31.978 27.7174 30.9655 29.2221 29.278C30.094 28.2937 30.2486 27.914 29.9252 27.5905C29.5736 27.239 29.1799 27.464 27.7174 28.8702C26.7752 29.7702 25.9315 30.4452 25.4252 30.6983C23.8783 31.4858 23.6815 31.4999 16.6643 31.4999H10.1955L8.26896 28.0827C7.20021 26.1983 6.32834 24.6233 6.32834 24.5812C6.32834 24.5249 7.95959 23.8358 9.95646 23.0343L13.5705 21.5858L15.1174 21.5999C16.6221 21.614 16.7486 21.6421 19.5893 22.5421C22.6408 23.4983 23.119 23.7515 23.2736 24.4827C23.3721 24.9327 23.0486 25.6499 22.6549 25.8749C22.4861 25.9593 21.2205 26.0155 19.5611 26.0155C18.0143 26.0155 16.594 26.0718 16.4111 26.1421C15.9893 26.3108 15.8627 26.7468 16.1299 27.1265C16.3268 27.4077 16.4533 27.4218 19.3783 27.4218C22.8236 27.4218 23.7658 27.2812 25.2143 26.578C26.4799 25.9452 27.3236 25.214 30.0236 22.3311C32.4283 19.7718 32.7096 19.5608 33.5252 19.7718C34.0315 19.8983 34.594 20.6015 34.594 21.1077C34.594 21.7124 34.2986 22.1765 33.3424 23.1327C32.358 24.089 32.2174 24.6655 32.9065 24.9186C33.3002 25.0593 33.7221 24.764 34.7065 23.639C35.8877 22.3171 36.1268 21.6983 35.8736 20.6155C35.5502 19.2093 34.5377 18.4218 33.0893 18.4218C32.569 18.4358 32.0908 18.5343 31.7815 18.703Z" fill="#444444"/>
<path d="M2.39062 25.3125C2.23594 25.4671 2.10938 25.65 2.10938 25.7062C2.10938 25.9453 4.66875 30.3187 4.95 30.5437C5.31562 30.8671 5.41406 30.8671 5.77969 30.5015C6.14531 30.1359 6.11719 30.0656 4.68281 27.5765C3.09375 24.8343 2.98125 24.7218 2.39062 25.3125Z" fill="#444444"/>
<path d="M30.8252 25.8188C30.2768 26.1984 30.5018 27 31.1627 27C31.8096 27 31.9924 26.1563 31.4299 25.7906C31.1768 25.6219 31.0924 25.6359 30.8252 25.8188Z" fill="#444444"/>
<path d="M6.15958 31.6545C5.58302 31.9779 6.10333 32.9763 6.76427 32.8076C7.08771 32.7232 7.27052 32.1185 7.07364 31.7951C6.9049 31.5138 6.48302 31.4576 6.15958 31.6545Z" fill="#444444"/>
</svg>
