<svg width="35" height="36" viewBox="0 0 35 36" fill="none" xmlns="http://www.w3.org/2000/svg">
<g clip-path="url(#clip0_3684_12625)">
<ellipse cx="16.4051" cy="15.9494" rx="15.9494" ry="15.9494" fill="#ACB5B8"/>
<path fill-rule="evenodd" clip-rule="evenodd" d="M15.4938 10.5425C15.2636 10.4316 15.0155 10.3403 14.7482 10.2734C12.7332 9.76971 11.2402 9.9454 10.1736 10.2696C9.64597 10.43 9.23612 10.6228 8.94299 10.7667C8.90278 10.7864 8.86664 10.8043 8.83377 10.8205C8.79987 10.8373 8.76917 10.8525 8.74136 10.866C8.65363 10.7908 8.52961 10.6847 8.42269 10.6007C8.04907 10.3069 7.50118 9.95347 6.73409 9.80914C6.14947 9.69914 5.43681 9.74612 4.75288 9.91488C4.06473 10.0847 3.34549 10.3925 2.76297 10.8585C2.25377 11.2659 1.79958 11.8998 1.47524 12.5424C1.1527 13.1814 0.909487 13.9261 0.911501 14.5843C0.913811 15.3394 1.12025 15.9432 1.31425 16.3771C1.38715 16.5401 1.46354 16.6896 1.51945 16.7991L1.52101 16.8021C1.48981 16.8385 1.45351 16.8799 1.41081 16.9287L1.35663 16.9906C1.12283 17.258 0.790393 17.6468 0.533356 18.1393C0.0968194 18.9759 -0.00402519 20.0789 0.000121087 20.7383C0.00957816 22.2425 0.540677 23.8961 1.53175 25.0523L1.54884 25.0722L1.5674 25.0908C2.21498 25.7384 3.08004 26.5947 5.07483 27.0934L5.12618 27.1062C5.74045 27.2599 6.03765 27.3342 6.48805 27.3467C6.69838 27.3525 6.96565 27.3444 7.35482 27.3326C7.53561 27.3271 7.74288 27.3208 7.98278 27.3148C7.98787 27.5691 7.99479 27.831 8.00176 28.0949L8.00351 28.1612C8.01778 28.702 8.03175 29.2525 8.03175 29.7859C8.03175 30.8806 7.97035 31.801 7.78202 32.366C7.59929 32.9142 7.16314 33.5131 6.7234 34.0078C6.51069 34.2471 6.31067 34.4471 6.16422 34.5869C6.14731 34.603 6.13116 34.6183 6.11581 34.6328H3.87353C3.49602 34.6328 3.18998 34.9388 3.18998 35.3163C3.18998 35.6938 3.49602 35.9999 3.87353 35.9999H25.2912C25.6688 35.9999 25.9748 35.6938 25.9748 35.3163C25.9748 34.9388 25.6688 34.6328 25.2912 34.6328H15.4378C15.4166 34.6158 15.3916 34.5949 15.3628 34.5698C15.2226 34.4475 15.0372 34.2632 14.8386 34.0381C14.4322 33.5776 14.0354 33.0197 13.85 32.5561C13.6675 32.0999 13.614 31.6087 13.614 31.1011C13.614 30.8474 13.6272 30.5991 13.6414 30.3498L13.6446 30.294C13.6575 30.0695 13.671 29.8352 13.671 29.6201V27.2675C17.3942 26.9068 20.4881 23.6508 20.9561 20.1408C20.9813 19.9521 20.9977 19.7702 21.006 19.5948H20.0507C19.9116 19.5948 19.774 19.5886 19.638 19.5764C19.631 19.699 19.6188 19.8269 19.601 19.9602C19.2152 22.8541 16.656 25.5301 13.671 25.892V21.9286L15.0657 20.5338C15.3229 20.2766 15.6308 19.9079 15.7944 19.4582C15.9701 18.975 15.9743 18.3997 15.6068 17.8486C15.332 17.4363 14.999 17.1394 14.6124 16.9741C14.2237 16.8079 13.8347 16.7977 13.4894 16.8701C12.852 17.0037 12.3334 17.4208 12.0411 17.7504C11.6168 18.1417 11.0773 18.6337 10.589 19.0789C9.9638 19.6489 9.42245 20.1425 9.31424 20.2507C9.27774 20.2872 9.23266 20.3361 9.19387 20.3782L9.17988 20.3934C9.13282 20.4444 9.08188 20.4994 9.02623 20.5566C8.91206 20.674 8.79392 20.7845 8.68351 20.8648C8.67408 20.8716 8.66512 20.878 8.65664 20.8838C8.4237 20.5975 8.03572 20.2551 7.56172 20.0579C7.26883 19.9361 6.91377 19.8578 6.52924 19.9122C6.1356 19.9678 5.76412 20.1553 5.44082 20.4786C4.89358 21.0258 4.78383 21.6929 4.85975 22.2406C4.93103 22.7548 5.1723 23.2273 5.44082 23.4959L5.45132 23.5064L7.84035 25.6274C7.9258 25.7033 7.97472 25.8121 7.97478 25.9263L7.97479 25.9472C7.67794 25.9545 7.44254 25.9619 7.24913 25.9681C6.91713 25.9786 6.70874 25.9852 6.52586 25.9801C6.23792 25.9721 6.08327 25.9363 5.4064 25.7671C3.77434 25.3591 3.11664 24.7067 2.55342 24.1435C1.81264 23.2676 1.37486 21.9508 1.36718 20.7298C1.36353 20.1487 1.46291 19.313 1.74534 18.7718C1.92115 18.4349 2.15833 18.1507 2.38593 17.8903L2.43245 17.8372C2.52531 17.7314 2.628 17.6144 2.7064 17.5109C2.75395 17.4481 2.81013 17.3678 2.85643 17.2769C2.89956 17.1923 2.96213 17.0452 2.96214 16.8607C2.96214 16.6971 2.91198 16.5596 2.88611 16.4934C2.8552 16.4142 2.81635 16.3345 2.78343 16.2688C2.76437 16.2308 2.74546 16.1937 2.72654 16.1567C2.67288 16.0515 2.6192 15.9464 2.56227 15.8191C2.41546 15.4907 2.28012 15.0812 2.27858 14.5801C2.27748 14.2208 2.42389 13.6968 2.69567 13.1584C2.96564 12.6235 3.31049 12.1712 3.61698 11.926C4.0098 11.6118 4.53548 11.3766 5.0804 11.2422C5.62953 11.1067 6.13806 11.0881 6.48131 11.1527C6.95395 11.2416 7.30105 11.4578 7.57765 11.6753C7.67542 11.7522 7.73932 11.8075 7.80669 11.8658C7.8543 11.9071 7.90364 11.9498 7.96788 12.0027C8.02753 12.0518 8.10794 12.1154 8.19678 12.1682C8.27448 12.2144 8.44075 12.3037 8.65832 12.3037C8.87551 12.3037 9.07222 12.2179 9.16381 12.1776C9.25341 12.1382 9.35946 12.0858 9.46161 12.0352C9.48995 12.0212 9.51801 12.0073 9.54531 11.9939C9.81446 11.8618 10.1477 11.7064 10.5712 11.5776C11.4068 11.3236 12.6478 11.1575 14.4166 11.5997C14.8319 11.7035 15.1884 11.9048 15.4938 12.1702V10.5425ZM7.98796 34.6328C8.40384 34.1288 8.85133 33.4812 9.07896 32.7983C9.34633 31.9962 9.39884 30.866 9.39884 29.7859C9.39884 29.2318 9.38434 28.6639 9.37012 28.1251L9.36859 28.0671C9.35483 27.5459 9.34188 27.0557 9.34188 26.617V25.6581C9.34188 25.3778 9.22423 25.1103 9.01761 24.9209L6.40309 22.5243L6.39804 22.5182C6.39174 22.5104 6.38356 22.4995 6.37399 22.4853C6.35466 22.4566 6.33253 22.4186 6.31061 22.3726C6.26614 22.2792 6.22984 22.1679 6.21389 22.0529C6.18348 21.8334 6.22563 21.6271 6.4075 21.4452C6.5399 21.3128 6.64575 21.2764 6.72061 21.2658C6.80457 21.2539 6.90919 21.2671 7.03667 21.3201C7.31405 21.4355 7.55575 21.6795 7.6339 21.7968C7.74519 21.9637 7.89554 22.1114 8.09173 22.2076C8.28936 22.3045 8.49221 22.3288 8.67537 22.3118C9.0137 22.2803 9.29959 22.1071 9.48759 21.9704C9.80212 21.7417 10.1228 21.3901 10.2394 21.2623C10.26 21.2397 10.2742 21.2241 10.2809 21.2174C10.3711 21.1273 10.8448 20.6955 11.4205 20.1708C11.9307 19.7059 12.521 19.1679 12.9954 18.73L13.0247 18.7029L13.0507 18.6726C13.2201 18.475 13.5066 18.2633 13.7699 18.2081C13.8855 18.1839 13.9832 18.1919 14.0748 18.231C14.1685 18.2711 14.3093 18.3668 14.4693 18.6069C14.5576 18.7393 14.5618 18.8476 14.5096 18.991C14.4453 19.1677 14.2975 19.3687 14.099 19.5672L12.3039 21.3623V29.6201C12.3039 29.7941 12.2927 29.9902 12.2791 30.2275L12.2765 30.2718C12.2623 30.5209 12.2469 30.8042 12.2469 31.1011C12.2469 31.6949 12.3074 32.3809 12.5806 33.0639C12.7993 33.6106 13.1779 34.1701 13.5518 34.6328H7.98796Z" fill="#444444"/>
<path d="M1.3672 35.3163C1.3672 35.6938 1.06117 35.9999 0.683655 35.9999C0.306144 35.9999 0.000111254 35.6938 0.000111254 35.3163C0.000111254 34.9388 0.306144 34.6328 0.683655 34.6328C1.06117 34.6328 1.3672 34.9388 1.3672 35.3163Z" fill="#444444"/>
<path fill-rule="evenodd" clip-rule="evenodd" d="M26.2026 21.8733C26.5802 21.8733 26.8862 22.1793 26.8862 22.5568C26.8862 23.5014 26.7513 24.3316 26.4157 25.0226C26.0716 25.7314 25.5356 26.2534 24.8159 26.5965C24.2946 26.845 23.7412 26.8859 23.2859 26.8859H23.2406L23.7875 27.6151C24.014 27.9171 23.9528 28.3455 23.6507 28.572C23.3487 28.7985 22.9203 28.7373 22.6938 28.4353L21.3267 26.6125C21.1444 26.3695 21.1444 26.0353 21.3267 25.7923L22.6938 23.9695C22.9203 23.6675 23.3487 23.6063 23.6507 23.8328C23.9528 24.0593 24.014 24.4877 23.7875 24.7897L23.2406 25.5189H23.2859C23.6775 25.5189 23.9845 25.4783 24.2277 25.3624C24.6776 25.148 24.9821 24.8454 25.1859 24.4255C25.3984 23.988 25.5191 23.3856 25.5191 22.5568C25.5191 22.1793 25.8251 21.8733 26.2026 21.8733Z" fill="#444444"/>
<path fill-rule="evenodd" clip-rule="evenodd" d="M10.3286 2.89751C11.0149 2.60624 11.8361 2.5062 12.7596 2.5062C13.1371 2.5062 13.4431 2.81223 13.4431 3.18974C13.4431 3.56725 13.1371 3.87329 12.7596 3.87329C11.9133 3.87329 11.304 3.96868 10.8627 4.15595C10.4473 4.33226 10.1589 4.59841 9.95326 5.01541C9.83733 5.25047 9.79756 5.55221 9.79756 5.94762V6.15177L10.5267 5.60493C10.8287 5.37843 11.2571 5.43963 11.4836 5.74164C11.7101 6.04365 11.6489 6.4721 11.3469 6.6986L9.52415 8.06569C9.28111 8.24797 8.94693 8.24797 8.70389 8.06569L6.88111 6.6986C6.5791 6.4721 6.51789 6.04365 6.7444 5.74164C6.97091 5.43963 7.39935 5.37843 7.70136 5.60493L8.43047 6.15177V5.94762C8.43047 5.49619 8.46854 4.93512 8.72719 4.41069C9.08006 3.69525 9.61648 3.19974 10.3286 2.89751Z" fill="#444444"/>
<path d="M25.5191 1.13911C25.5191 1.51662 25.8251 1.82265 26.2026 1.82265H30.0761C31.8378 1.82265 33.2659 3.25081 33.2659 5.01253V15.0378C33.2659 16.7996 31.8378 18.2277 30.0761 18.2277H20.0507C18.289 18.2277 16.8609 16.7996 16.8609 15.0378V5.01253C16.8609 3.25081 18.289 1.82265 20.0507 1.82265H20.7343C21.1118 1.82265 21.4178 1.51662 21.4178 1.13911C21.4178 0.7616 21.1118 0.455566 20.7343 0.455566H20.0507C17.534 0.455566 15.4938 2.49579 15.4938 5.01253V15.0378C15.4938 17.5546 17.534 19.5948 20.0507 19.5948L30.0761 19.5948C32.5928 19.5948 34.633 17.5546 34.633 15.0378V5.01253C34.633 2.49579 32.5928 0.455566 30.0761 0.455566H26.2026C25.8251 0.455566 25.5191 0.7616 25.5191 1.13911Z" fill="#444444"/>
<path d="M24.152 1.13911C24.152 1.51662 23.846 1.82265 23.4685 1.82265C23.091 1.82265 22.7849 1.51662 22.7849 1.13911C22.7849 0.7616 23.091 0.455566 23.4685 0.455566C23.846 0.455566 24.152 0.7616 24.152 1.13911Z" fill="#444444"/>
<path fill-rule="evenodd" clip-rule="evenodd" d="M21.1629 12.256C21.3283 12.2353 21.4409 12.0927 21.4409 11.926V11.2023C21.4409 10.9507 21.645 10.7466 21.8966 10.7466H22.005C22.328 10.7466 22.6114 10.7069 22.855 10.6275C23.1039 10.5427 23.3078 10.4262 23.4667 10.2779C23.6308 10.1244 23.7526 9.9443 23.8321 9.73776C23.9168 9.52592 23.9592 9.29025 23.9592 9.03074C23.9592 8.49585 23.7659 8.07217 23.3793 7.7597C22.9927 7.44724 22.4339 7.29101 21.7031 7.29101C21.4701 7.29101 21.237 7.3069 21.004 7.33867C20.7763 7.36515 20.5724 7.41017 20.3923 7.47372C20.2864 7.51079 20.2017 7.5611 20.1381 7.62466C20.0799 7.68291 20.0507 7.76765 20.0507 7.87886V11.6205C20.0507 11.7582 20.0666 11.8694 20.0984 11.9541C20.1302 12.0389 20.1778 12.1051 20.2414 12.1527C20.3049 12.2004 20.3817 12.2322 20.4718 12.2481C20.5671 12.2692 20.6757 12.2798 20.7975 12.2798C20.9193 12.2798 21.0411 12.2719 21.1629 12.256ZM22.3624 9.50738C22.2459 9.60801 22.0765 9.65832 21.854 9.65832C21.6215 9.65832 21.433 9.46982 21.433 9.23729V8.5948C21.433 8.49763 21.5026 8.41111 21.5998 8.41111C21.6581 8.40582 21.7296 8.40317 21.8143 8.40317C22.0526 8.40317 22.2327 8.45878 22.3545 8.56999C22.4816 8.67591 22.5452 8.82949 22.5452 9.03074C22.5452 9.24258 22.4842 9.40146 22.3624 9.50738Z" fill="#444444"/>
<path d="M27.8587 11.1327C27.9372 11.0903 27.9853 11.0108 28.0105 10.9253C28.1369 10.497 28.2459 10.1409 28.3373 9.85692C28.4352 9.5531 28.5105 9.29936 28.5632 9.09568C28.5659 9.08551 28.575 9.07841 28.5855 9.07841C28.5978 9.07841 28.6079 9.08797 28.6085 9.1002C28.6238 9.40879 28.634 9.78813 28.6392 10.2382C28.6498 10.699 28.671 11.218 28.7027 11.7953C28.7133 11.9965 28.7875 12.1315 28.9252 12.2004C29.0629 12.2692 29.2323 12.3037 29.4336 12.3037C29.5872 12.3037 29.7116 12.2904 29.807 12.2639C29.8183 12.2615 29.8296 12.259 29.8409 12.2561C30.0042 12.2155 30.0887 12.0477 30.0785 11.8798C30.0737 11.8002 30.0679 11.7111 30.0612 11.6125C30.0453 11.3742 30.0241 11.1147 29.9976 10.834C29.9764 10.548 29.9526 10.2515 29.9261 9.9443C29.8996 9.63713 29.8731 9.34585 29.8467 9.07046C29.8202 8.79507 29.7937 8.54881 29.7672 8.33167C29.746 8.10924 29.7249 7.94506 29.7037 7.83914C29.6772 7.69615 29.5819 7.58758 29.4177 7.51344C29.2535 7.434 29.0417 7.39428 28.7822 7.39428C28.6286 7.39428 28.4883 7.41017 28.3611 7.44195C28.3095 7.45317 28.2617 7.46583 28.2176 7.47992C28.1123 7.5136 28.0374 7.60211 28.0001 7.70618C27.9104 7.9561 27.8136 8.25198 27.7097 8.59382C27.5845 9.00093 27.4592 9.42347 27.3339 9.86144C27.3307 9.87286 27.3202 9.88075 27.3084 9.88075C27.2967 9.88075 27.2864 9.87314 27.2829 9.86198C27.242 9.72914 27.1963 9.58181 27.1457 9.42C27.0928 9.24523 27.0371 9.07046 26.9789 8.89569C26.9259 8.72093 26.8703 8.55146 26.8121 8.38728C26.7591 8.2231 26.7088 8.07746 26.6611 7.95036C26.587 7.75441 26.4705 7.61406 26.3116 7.52933C26.1527 7.4393 25.9329 7.39428 25.6522 7.39428C25.3927 7.39428 25.1915 7.434 25.0485 7.51344C24.9632 7.56081 24.8959 7.6063 24.8464 7.6499C24.7897 7.69985 24.7682 7.77537 24.7639 7.8508L24.5401 11.7873C24.5401 11.9833 24.6036 12.1183 24.7307 12.1925C24.8631 12.2666 25.0459 12.3037 25.2789 12.3037C25.3901 12.3037 25.5013 12.2931 25.6125 12.2719C25.7799 12.248 25.8886 12.0996 25.8961 11.9306C25.9047 11.7354 25.9108 11.5526 25.9144 11.3822C25.925 11.1333 25.9303 10.887 25.9303 10.6434C25.9356 10.3998 25.9409 10.1508 25.9462 9.89664C25.9565 9.64316 25.9694 9.36442 25.9848 9.06042C25.9854 9.04825 25.9955 9.03869 26.0076 9.03869C26.0182 9.03869 26.0274 9.04589 26.0299 9.05613C26.0825 9.2694 26.1553 9.51779 26.248 9.80131C26.3434 10.0873 26.4652 10.4633 26.6135 10.9294C26.6505 11.0459 26.73 11.128 26.8518 11.1756C26.9789 11.2233 27.1378 11.2471 27.3284 11.2471C27.4714 11.2471 27.5959 11.2312 27.7018 11.1995C27.7599 11.1801 27.8122 11.1579 27.8587 11.1327Z" fill="#444444"/>
</g>
<defs>
<clipPath id="clip0_3684_12625">
<rect width="34.633" height="36" fill="white"/>
</clipPath>
</defs>
</svg>
