<svg width="36" height="36" viewBox="0 0 36 36" fill="none" xmlns="http://www.w3.org/2000/svg">
<ellipse cx="18.2571" cy="16.2" rx="16.2" ry="16.2" fill="#88CCFF"/>
<path d="M20.0976 10.0273C20.3585 10.3181 20.6806 10.6804 21.0448 11.1025C22.0532 12.2711 23.3883 13.8887 24.7021 15.6904C26.0192 17.4968 27.2974 19.4648 28.205 21.335C29.128 23.2371 29.5966 24.8971 29.4726 26.1377C28.9629 31.233 25.4123 34.9998 20.0956 35C14.765 35 11.1417 31.2296 10.7187 26.1543C10.6147 24.9064 11.0988 23.2395 12.0273 21.3359C12.9404 19.4639 14.2162 17.4951 15.5273 15.6885C16.8353 13.886 18.1623 12.2684 19.163 11.0996C19.5228 10.6794 19.8394 10.3175 20.0976 10.0273Z" stroke="#444444" stroke-width="2" stroke-linecap="round" stroke-linejoin="round"/>
<path d="M7.31119 2.47021C7.77885 3.03439 8.39681 3.81396 9.00357 4.68018C9.61325 5.55058 10.1952 6.48568 10.6042 7.36279C11.0272 8.27034 11.2013 8.98328 11.1559 9.45557C10.9349 11.7544 9.43532 13.3236 7.27994 13.3237C5.11169 13.3237 3.58716 11.7466 3.40494 9.47119C3.36658 8.99204 3.54842 8.27363 3.97427 7.36475C4.3862 6.48562 4.96773 5.54913 5.57486 4.67822C6.17912 3.81146 6.7933 3.03165 7.25748 2.46729C7.2659 2.45704 7.27455 2.44711 7.28287 2.43701C7.29209 2.44812 7.30184 2.45893 7.31119 2.47021Z" stroke="#444444" stroke-width="2" stroke-linecap="round" stroke-linejoin="round"/>
<path d="M30.4691 3.96143C30.7909 4.34491 31.1814 4.82935 31.5639 5.35889C32.0164 5.98531 32.4421 6.65025 32.7387 7.26709C33.0505 7.91579 33.1512 8.37398 33.1254 8.63428C32.9731 10.1699 31.9546 11.2034 30.4672 11.2036C28.966 11.2036 27.9347 10.1606 27.81 8.6499C27.788 8.38247 27.8944 7.91884 28.2084 7.26904C28.5075 6.65005 28.9344 5.98396 29.3852 5.35693C29.765 4.82866 30.1503 4.34451 30.4691 3.96143Z" stroke="#444444" stroke-width="2" stroke-linecap="round" stroke-linejoin="round"/>
</svg>
