<svg width="80" height="80" viewBox="0 0 80 80" fill="none" xmlns="http://www.w3.org/2000/svg">
<ellipse opacity="0.4" cx="40.8163" cy="38.3674" rx="34.2857" ry="34.2857" fill="#66B659"/>
<path d="M45.3613 20.5888C45.2244 20.3171 45.199 20.0012 45.2906 19.7104C45.4023 19.4392 45.42 19.1372 45.3408 18.8543C45.2615 18.5714 45.0901 18.3244 44.8546 18.154C44.6354 17.945 44.5068 17.6559 44.4969 17.3503C44.4871 17.0447 44.5969 16.7476 44.8022 16.5245C45.0074 16.3013 45.2914 16.1703 45.5915 16.1603C45.8916 16.1503 46.1833 16.2621 46.4025 16.4711C46.9528 16.9402 47.3481 17.5704 47.5347 18.276C47.7214 18.9817 47.6904 19.7288 47.4459 20.4159C47.3723 20.648 47.2284 20.8505 47.0347 20.9941C46.8411 21.1378 46.6078 21.2153 46.3682 21.2155C46.2502 21.2156 46.133 21.1967 46.0208 21.1595C45.7354 21.0657 45.4982 20.8605 45.3613 20.5888Z" fill="#444444"/>
<path d="M47.484 44.8855H47.4795C47.3308 44.8862 47.1838 44.9166 47.0466 44.9751C46.9095 45.0335 46.7851 45.119 46.6804 45.2264C46.5757 45.3339 46.4928 45.4613 46.4365 45.6014C46.3801 45.7415 46.3514 45.8915 46.352 46.0428C46.3572 47.1988 46.2421 47.3246 45.6897 47.9279C45.485 48.1516 45.376 48.4489 45.3866 48.7545C45.3972 49.06 45.5266 49.3487 45.7463 49.5572C45.9659 49.7656 46.2579 49.8766 46.558 49.8658C46.858 49.8549 47.1416 49.7232 47.3462 49.4995C48.29 48.4687 48.6238 47.787 48.616 46.0329C48.6146 45.7282 48.4948 45.4363 48.2826 45.2213C48.0705 45.0063 47.7833 44.8855 47.484 44.8855Z" fill="#444444"/>
<path d="M47.295 24.4824C47.2383 24.1823 47.3009 23.8715 47.4692 23.6183C47.6375 23.366 47.8971 23.1918 48.1912 23.134C48.4854 23.0762 48.79 23.1396 49.0384 23.3101C49.1393 23.3799 51.5256 25.0555 51.7953 27.7561C51.8788 28.7533 51.75 29.7571 51.4177 30.699C51.0854 31.6409 50.5573 32.4987 49.8696 33.2138C49.6492 33.4125 49.3616 33.516 49.0675 33.5024C48.7735 33.4888 48.4962 33.3592 48.2944 33.141C48.0926 32.9228 47.9821 32.6332 47.9864 32.3336C47.9906 32.0339 48.1093 31.7476 48.3172 31.5355C48.7562 31.066 49.0927 30.5073 49.3045 29.896C49.5163 29.2847 49.5987 28.6346 49.5462 27.9886C49.3851 26.3729 47.7881 25.2301 47.7719 25.2189C47.5233 25.0475 47.3518 24.7826 47.295 24.4824Z" fill="#444444"/>
<path fill-rule="evenodd" clip-rule="evenodd" d="M64.894 76.8783H77.4021C77.7023 76.8783 77.9902 76.9997 78.2025 77.2159C78.4148 77.4321 78.5341 77.7253 78.5341 78.031C78.5341 78.3367 78.4148 78.6299 78.2025 78.846C77.9902 79.0622 77.7023 79.1836 77.4021 79.1836H2.76476C2.46453 79.1836 2.17661 79.0622 1.96432 78.846C1.75203 78.6299 1.63277 78.3367 1.63277 78.031C1.63277 77.7253 1.75203 77.4321 1.96432 77.2159C2.17661 76.9997 2.46453 76.8783 2.76476 76.8783H15.2729V59.1259C15.0325 59.1557 14.7906 59.1713 14.5484 59.1726C12.8709 59.1697 11.2629 58.4897 10.0767 57.2818C8.89059 56.0739 8.22302 54.4364 8.22028 52.7282V52.6663C7.16062 52.5199 6.15464 52.1026 5.29618 51.4534C4.43771 50.8041 3.75473 49.944 3.31096 48.9532C2.86718 47.9625 2.67707 46.8735 2.75835 45.7878C2.83963 44.702 3.18966 43.6549 3.77578 42.7441C3.04971 42.0927 2.48015 41.2803 2.11096 40.3694C1.74177 39.4586 1.5828 38.4736 1.64628 37.4904C1.70977 36.5071 1.99402 35.5518 2.47715 34.698C2.96028 33.8442 3.6294 33.1148 4.43298 32.5657C3.92361 31.0938 3.95682 29.4835 4.52644 28.0345C5.09605 26.5856 6.16327 25.3968 7.52945 24.6894C7.4667 24.3278 7.4351 23.9612 7.43501 23.594C7.43686 22.0891 7.95502 20.6322 8.89992 19.4751C9.84481 18.318 11.1571 17.5334 12.6098 17.257C12.6695 15.5898 13.3619 14.0111 14.5414 12.8531C15.7208 11.6951 17.2953 11.0481 18.9337 11.0481C20.5721 11.0481 22.1466 11.6951 23.3261 12.8531C24.5055 14.0111 25.1979 15.5898 25.2576 17.257C25.6219 17.3283 25.9792 17.433 26.3249 17.5698C26.2264 17.0753 26.1765 16.572 26.1762 16.0674C26.1783 14.2382 26.8211 12.4697 27.9892 11.0799C29.1572 9.69015 30.7738 8.77021 32.5483 8.48549C32.5494 6.45035 33.3444 4.49903 34.7584 3.06077C36.1725 1.62252 38.0897 0.815151 40.0883 0.816285C42.0869 0.817422 44.0032 1.62697 45.4156 3.06683C46.8281 4.50669 47.621 6.45892 47.6199 8.49405C49.3936 8.77757 51.0098 9.69617 52.1779 11.0847C53.346 12.4732 53.9892 14.2405 53.992 16.0687C53.9917 16.5727 53.9421 17.0753 53.8438 17.5692C54.1897 17.4319 54.5469 17.3264 54.9111 17.2537C54.9696 15.5848 55.6621 14.0043 56.8426 12.8451C58.0231 11.6859 59.5995 11.0387 61.2394 11.0398C62.8794 11.0409 64.4549 11.6903 65.6339 12.851C66.8129 14.0118 67.5033 15.5933 67.5596 17.2622C69.0116 17.5375 70.3235 18.3207 71.2684 19.4766C72.2134 20.6324 72.7319 22.0881 72.7344 23.592C72.7343 23.9593 72.7027 24.3258 72.64 24.6874C74.0061 25.3953 75.0731 26.5847 75.6423 28.034C76.2114 29.4833 76.244 31.0938 75.7339 32.5657C76.5374 33.1148 77.2066 33.8442 77.6897 34.698C78.1728 35.5518 78.4571 36.5071 78.5206 37.4904C78.584 38.4736 78.4251 39.4586 78.0559 40.3694C77.6867 41.2803 77.1171 42.0927 76.3911 42.7441C76.9772 43.6549 77.3272 44.702 77.4085 45.7878C77.4898 46.8735 77.2997 47.9625 76.8559 48.9532C76.4121 49.944 75.7291 50.8041 74.8707 51.4534C74.0122 52.1026 73.0062 52.5199 71.9466 52.6663V52.7282C71.9438 54.4364 71.2763 56.0739 70.0901 57.2818C68.904 58.4897 67.296 59.1697 65.6184 59.1726C65.3763 59.1713 65.1344 59.1557 64.894 59.1259V76.8783ZM57.195 18.6183C57.1503 18.7781 57.0723 18.9262 56.9662 19.0525C56.7859 19.2578 56.5418 19.3937 56.2747 19.4372C57.1754 20.4883 57.7778 21.7695 58.0171 23.1431C58.2564 24.5166 58.1237 25.9307 57.6331 27.2332C58.6383 27.8802 59.4787 28.7605 60.0854 29.802C60.6921 30.8435 61.0479 32.0165 61.1236 33.225C61.1994 34.4335 60.9929 35.6431 60.5211 36.7547C60.0493 37.8662 59.3256 38.8482 58.4093 39.6201C59.1624 40.715 59.6216 41.9912 59.7414 43.3224C59.8612 44.6536 59.6374 45.9936 59.0922 47.2097C58.547 48.4257 57.6994 49.4757 56.6331 50.2555C55.5669 51.0354 54.3191 51.5181 53.0133 51.6559C53.0204 51.7613 53.0204 51.8654 53.0204 51.9694C53.0199 52.4811 52.9692 52.9915 52.869 53.4929C53.0179 54.3087 53.4048 55.0597 53.9792 55.6482C54.5537 56.2366 55.2889 56.635 56.0891 56.7915C56.8893 56.9479 57.7172 56.8551 58.4648 56.5252C59.2124 56.1953 59.845 55.6436 60.28 54.942C60.3823 54.7785 60.5235 54.644 60.6904 54.5507C60.8574 54.4575 61.0447 54.4086 61.2351 54.4086C61.4254 54.4086 61.6128 54.4575 61.7797 54.5507C61.9466 54.644 62.0878 54.7785 62.1901 54.942C62.6608 55.6994 63.3604 56.2806 64.1836 56.5979C65.0068 56.9153 65.909 56.9518 66.7543 56.7018C67.5996 56.4518 68.3422 55.929 68.8703 55.2119C69.3985 54.4949 69.6836 53.6225 69.6826 52.7262C69.681 52.4159 69.6456 52.1066 69.5772 51.8041C69.5377 51.6278 69.5396 51.4445 69.5826 51.2691C69.6256 51.0937 69.7085 50.931 69.8247 50.7943C69.9409 50.6576 70.0871 50.5506 70.2514 50.4821C70.4157 50.4136 70.5936 50.3854 70.7706 50.3998C70.8786 50.4091 70.9873 50.4176 71.0979 50.4176C71.9033 50.4181 72.6907 50.1747 73.3601 49.7185C74.0294 49.2623 74.5505 48.6138 74.8571 47.8554C75.1637 47.097 75.242 46.2629 75.0821 45.4591C74.9222 44.6553 74.5312 43.918 73.9589 43.3409C73.8346 43.2155 73.7405 43.0624 73.6841 42.8938C73.6276 42.7251 73.6104 42.5454 73.6336 42.3688C73.6569 42.1922 73.72 42.0235 73.8181 41.8759C73.9162 41.7284 74.0465 41.606 74.1989 41.5184C74.8586 41.1408 75.4015 40.583 75.7666 39.908C76.1316 39.233 76.3041 38.4676 76.2648 37.6981C76.2255 36.9286 75.9758 36.1855 75.5439 35.5528C75.112 34.92 74.5151 34.4227 73.8205 34.1169C73.6742 34.0524 73.543 33.9572 73.4355 33.8375C73.3279 33.7178 73.2463 33.5763 73.1962 33.4222C73.1461 33.2682 73.1285 33.1051 73.1445 32.9437C73.1606 32.7822 73.21 32.626 73.2894 32.4854C73.5936 31.9472 73.7747 31.3462 73.8194 30.727C73.864 30.1077 73.771 29.4862 73.5472 28.9086C73.3235 28.331 72.9747 27.8122 72.5269 27.3908C72.0791 26.9694 71.5438 26.6561 70.9608 26.4744C70.8145 26.4284 70.679 26.3528 70.5623 26.252C70.4456 26.1513 70.3501 26.0275 70.2817 25.8881C70.2132 25.7487 70.1733 25.5967 70.1641 25.4412C70.155 25.2856 70.1769 25.1298 70.2285 24.9832C70.4509 24.3589 70.522 23.6891 70.4358 23.0308C70.3496 22.3726 70.1086 21.7452 69.7334 21.2021C69.3581 20.6589 68.8596 20.2161 68.2803 19.9111C67.7009 19.6061 67.0578 19.4481 66.4057 19.4503C66.2393 19.4506 66.0749 19.4149 65.9231 19.3457C65.7714 19.2764 65.6358 19.1751 65.5253 19.0486C65.4164 18.9243 65.335 18.7776 65.2866 18.6185C65.2382 18.4594 65.2238 18.2916 65.2446 18.1264C65.2791 17.9161 65.2973 17.7034 65.2989 17.4901C65.2989 16.3926 64.8707 15.3399 64.1085 14.5638C63.3464 13.7877 62.3126 13.3517 61.2347 13.3517C60.1569 13.3517 59.1231 13.7877 58.3609 14.5638C57.5988 15.3399 57.1706 16.3926 57.1706 17.4901C57.1722 17.7034 57.1904 17.9161 57.2249 18.1264C57.2499 18.2906 57.2397 18.4584 57.195 18.6183ZM48.9558 58.7748C47.8837 59.3434 46.6928 59.6408 45.484 59.6416C45.0969 59.6388 44.7107 59.6055 44.3287 59.5421V76.8783H57.5762V59.1259C57.336 59.1557 57.0943 59.1713 56.8523 59.1726C55.8268 59.1687 54.8175 58.9121 53.9104 58.4249C53.0034 57.9377 52.2255 57.2342 51.6433 56.3746C50.9497 57.3828 50.0279 58.2061 48.9558 58.7748ZM28.8167 18.3319C28.8075 18.4874 28.7674 18.6393 28.6989 18.7785C28.6303 18.918 28.5346 19.0419 28.4176 19.1426C28.3007 19.2434 28.1649 19.3189 28.0184 19.3647C27.2624 19.6006 26.5683 20.0069 25.9877 20.5535C25.4071 21.1001 24.955 21.7729 24.6649 22.5219C24.3747 23.2709 24.2541 24.0768 24.3119 24.8798C24.3698 25.6828 24.6046 26.4622 24.9989 27.16C25.0782 27.3008 25.1275 27.4571 25.1435 27.6186C25.1595 27.7801 25.1418 27.9432 25.0916 28.0972C25.0414 28.2513 24.9598 28.3928 24.8522 28.5126C24.7446 28.6324 24.6134 28.7276 24.4672 28.7922C23.5665 29.1889 22.7926 29.8339 22.2327 30.6544C21.6727 31.475 21.349 32.4385 21.298 33.4364C21.247 34.4343 21.4708 35.4268 21.9441 36.3021C22.4175 37.1774 23.1215 37.9007 23.9769 38.3903C24.1296 38.4774 24.2605 38.5994 24.3592 38.7466C24.4579 38.8939 24.5217 39.0624 24.5457 39.239C24.5696 39.4156 24.553 39.5955 24.4972 39.7644C24.4414 39.9334 24.3479 40.0869 24.224 40.2129C23.4815 40.9611 22.9743 41.9172 22.7667 42.9596C22.5591 44.0021 22.6605 45.0839 23.058 46.0675C23.4555 47.0511 24.1312 47.8923 24.9992 48.484C25.8672 49.0757 26.8884 49.3913 27.933 49.3908C28.0767 49.3908 28.2165 49.3797 28.3569 49.3685L28.3586 49.3684C28.5357 49.354 28.7137 49.3823 28.878 49.4509C29.0424 49.5196 29.1886 49.6267 29.3048 49.7635C29.421 49.9004 29.5039 50.0631 29.5469 50.2387C29.5898 50.4142 29.5916 50.5976 29.5521 50.774C29.2694 52.0083 29.4256 53.3048 29.9929 54.4329C30.5602 55.5611 31.5019 56.448 32.6507 56.936C33.7995 57.424 35.0809 57.4815 36.2674 57.0984C37.4539 56.7152 38.4686 55.9162 39.1313 54.8432C39.2335 54.6794 39.3746 54.5446 39.5416 54.4512C39.7086 54.3577 39.8961 54.3088 40.0867 54.3088C40.2772 54.3088 40.4647 54.3577 40.6317 54.4512C40.7987 54.5446 40.9398 54.6794 41.042 54.8432C41.7066 55.9125 42.7213 56.7079 43.9064 57.0887C45.0915 57.4695 46.3707 57.4111 47.5177 56.9239C48.6646 56.4367 49.6053 55.552 50.1733 54.4265C50.7413 53.301 50.8999 52.0071 50.6212 50.774C50.5817 50.5976 50.5835 50.4142 50.6264 50.2387C50.6694 50.0631 50.7523 49.9004 50.8685 49.7635C50.9847 49.6267 51.1309 49.5196 51.2953 49.4509C51.4596 49.3823 51.6376 49.354 51.8147 49.3684L51.8164 49.3685C51.9568 49.3797 52.0966 49.3908 52.2403 49.3908C53.2847 49.391 54.3057 49.0752 55.1735 48.4834C56.0413 47.8916 56.7169 47.0506 57.1143 46.0671C57.5118 45.0836 57.6133 44.002 57.4058 42.9596C57.1984 41.9173 56.6914 40.9612 55.9493 40.2129C55.8252 40.0874 55.7313 39.9343 55.6749 39.7656C55.6186 39.5969 55.6015 39.4173 55.6248 39.2407C55.6481 39.0641 55.7112 38.8955 55.8093 38.7479C55.9074 38.6004 56.0377 38.478 56.19 38.3903C57.0452 37.9004 57.749 37.1769 58.2221 36.3014C58.6952 35.4259 58.9186 34.4333 58.8673 33.4354C58.816 32.4375 58.492 31.474 57.9317 30.6537C57.3714 29.8333 56.5973 29.1886 55.6964 28.7922C55.5502 28.7276 55.419 28.6324 55.3114 28.5126C55.2038 28.3928 55.1222 28.2513 55.072 28.0972C55.0218 27.9432 55.0042 27.7801 55.0201 27.6186C55.0361 27.4571 55.0854 27.3008 55.1647 27.16C55.5591 26.4624 55.794 25.6832 55.852 24.8804C55.9101 24.0776 55.7897 23.2718 55.4999 22.5228C55.2101 21.7739 54.7584 21.101 54.1781 20.5543C53.5979 20.0076 52.9042 19.601 52.1484 19.3647C52.0024 19.3187 51.8669 19.243 51.7503 19.1423C51.6337 19.0415 51.5383 18.9178 51.4699 18.7786C51.4015 18.6393 51.3615 18.4874 51.3522 18.3319C51.343 18.1765 51.3648 18.0208 51.4162 17.8741C51.7036 17.0646 51.795 16.1965 51.6828 15.3434C51.5705 14.4902 51.2579 13.6772 50.7714 12.9732C50.285 12.2693 49.6389 11.6952 48.8882 11.2996C48.1375 10.9039 47.3041 10.6985 46.4588 10.7006C46.2916 10.7009 46.1262 10.6653 45.9735 10.5961C45.8208 10.5268 45.6842 10.4255 45.5726 10.2988C45.4627 10.1744 45.3803 10.0274 45.3311 9.86769C45.2819 9.70802 45.2669 9.53943 45.2873 9.37337C45.3317 9.10099 45.3551 8.82548 45.3572 8.54938C45.3572 7.12566 44.8018 5.76025 43.8131 4.75353C42.8244 3.74681 41.4835 3.18124 40.0854 3.18124C38.6872 3.18124 37.3463 3.74681 36.3576 4.75353C35.369 5.76025 34.8135 7.12566 34.8135 8.54938C34.8156 8.82548 34.839 9.10099 34.8834 9.37337C34.9084 9.53771 34.8982 9.70559 34.8535 9.86554C34.8088 10.0255 34.7308 10.1737 34.6247 10.3001C34.5033 10.4373 34.3529 10.5445 34.1847 10.6135C34.0166 10.6826 33.8352 10.7117 33.6544 10.6986C32.8137 10.7059 31.987 10.9183 31.2435 11.3179C30.5 11.7176 29.8615 12.293 29.3814 12.9958C28.9013 13.6985 28.5937 14.5083 28.4843 15.3571C28.3748 16.2059 28.4668 17.069 28.7526 17.8741C28.8041 18.0208 28.8259 18.1765 28.8167 18.3319ZM26.2564 58.4249C25.3494 58.9121 24.34 59.1687 23.3145 59.1726C23.0725 59.1713 22.8309 59.1557 22.5907 59.1259V76.8783H35.8382V59.5421C34.4495 59.7739 33.0247 59.5993 31.7298 59.0385C30.4348 58.4777 29.3229 57.5539 28.5236 56.3746C27.9413 57.2342 27.1635 57.9377 26.2564 58.4249ZM10.5897 51.8061C10.5212 52.1086 10.4859 52.4178 10.4843 52.7282C10.484 53.6234 10.769 54.4945 11.2965 55.2106C11.8246 55.9276 12.5673 56.4505 13.4126 56.7005C14.2579 56.9505 15.16 56.914 15.9832 56.5966C16.8064 56.2792 17.506 55.6981 17.9767 54.9407C18.079 54.7772 18.2202 54.6427 18.3871 54.5494C18.5541 54.4562 18.7414 54.4073 18.9318 54.4073C19.1222 54.4073 19.3095 54.4562 19.4764 54.5494C19.6433 54.6427 19.7845 54.7772 19.8869 54.9407C20.3218 55.6422 20.9544 56.194 21.702 56.5239C22.4496 56.8538 23.2775 56.9466 24.0777 56.7902C24.8779 56.6337 25.6132 56.2353 26.1876 55.6468C26.762 55.0584 27.1489 54.3073 27.2978 53.4916C27.1981 52.9906 27.1479 52.4807 27.1477 51.9694C27.1477 51.8654 27.1503 51.7613 27.1548 51.6559C25.8485 51.5183 24.6002 51.0354 23.5337 50.2552C22.4671 49.475 21.6193 48.4244 21.0743 47.2078C20.5292 45.9911 20.3059 44.6505 20.4264 43.3189C20.547 41.9873 21.0072 40.7108 21.7614 39.6161C20.8451 38.8442 20.1214 37.8623 19.6496 36.7507C19.1778 35.6391 18.9714 34.4296 19.0471 33.2211C19.1228 32.0126 19.4786 30.8396 20.0853 29.7981C20.692 28.7566 21.5324 27.8763 22.5376 27.2292C22.0468 25.9254 21.9146 24.5099 22.1552 23.1353C22.3959 21.7606 23.0002 20.4788 23.9031 19.4279C23.6406 19.3846 23.4007 19.2503 23.2239 19.0479C23.1151 18.9236 23.0337 18.7769 22.9853 18.6179C22.9368 18.4588 22.9225 18.291 22.9432 18.1258C22.9778 17.9155 22.9959 17.7027 22.9975 17.4895C22.9975 16.3919 22.5694 15.3393 21.8072 14.5632C21.045 13.7871 20.0113 13.3511 18.9334 13.3511C17.8555 13.3511 16.8218 13.7871 16.0596 14.5632C15.2974 15.3393 14.8692 16.3919 14.8692 17.4895C14.8708 17.7027 14.889 17.9155 14.9236 18.1258C14.9485 18.29 14.9383 18.4578 14.8937 18.6176C14.849 18.7774 14.7709 18.9256 14.6648 19.0518C14.5452 19.1877 14.397 19.2941 14.2311 19.3633C14.0653 19.4324 13.8863 19.4624 13.7075 19.451C13.0602 19.4582 12.424 19.6232 11.8521 19.9321C11.2803 20.241 10.7894 20.6849 10.4205 21.2266C10.0517 21.7684 9.81561 22.3921 9.73205 23.0458C9.64849 23.6995 9.71989 24.364 9.94025 24.9838C9.99185 25.1306 10.0137 25.2865 10.0044 25.4422C9.99516 25.5978 9.955 25.7499 9.88638 25.8893C9.81775 26.0287 9.72209 26.1525 9.60516 26.2531C9.48823 26.3538 9.35247 26.4293 9.20608 26.475C8.62302 26.6568 8.0877 26.97 7.63991 27.3915C7.19212 27.8129 6.84338 28.3317 6.61963 28.9093C6.39587 29.4869 6.30285 30.1084 6.34748 30.7276C6.39211 31.3469 6.57325 31.9479 6.87742 32.486C6.95688 32.6267 7.00626 32.7829 7.02232 32.9443C7.03838 33.1058 7.02077 33.2688 6.97063 33.4229C6.92049 33.5769 6.83896 33.7184 6.73138 33.8381C6.6238 33.9579 6.49259 34.0531 6.34636 34.1176C5.65175 34.4233 5.05484 34.9207 4.62296 35.5534C4.19107 36.1862 3.94138 36.9292 3.90204 37.6987C3.86269 38.4683 4.03526 39.2337 4.40029 39.9087C4.76532 40.5837 5.30828 41.1414 5.96795 41.519C6.12032 41.6066 6.25066 41.729 6.34874 41.8766C6.44681 42.0242 6.50996 42.1929 6.53321 42.3695C6.55647 42.5461 6.5392 42.7258 6.48276 42.8944C6.42632 43.0631 6.33225 43.2161 6.20793 43.3415C5.63518 43.9186 5.24384 44.656 5.08366 45.46C4.92348 46.2641 5.00169 47.0985 5.30836 47.8571C5.61502 48.6158 6.13629 49.2645 6.8059 49.7208C7.47552 50.1771 8.26324 50.4203 9.06895 50.4196C9.17956 50.4196 9.28823 50.411 9.39625 50.4018C9.57325 50.3874 9.75111 50.4156 9.91543 50.4841C10.0797 50.5526 10.2259 50.6596 10.3421 50.7963C10.4583 50.933 10.5413 51.0957 10.5843 51.2711C10.6273 51.4465 10.6291 51.6298 10.5897 51.8061ZM17.5349 58.4073V76.8783L20.3267 76.8789V58.4073C19.8171 58.1299 19.3475 57.7821 18.9315 57.3738C18.5147 57.7819 18.0448 58.1296 17.5349 58.4073ZM38.1002 58.8025V76.8783L42.0647 76.8809V58.8025C41.3284 58.4208 40.659 57.9181 40.0834 57.3145C39.5073 57.9183 38.8372 58.421 38.1002 58.8025ZM59.8382 58.4073V76.8783L62.63 76.8789V58.4073C62.1208 58.1295 61.6516 57.7817 61.2354 57.3738C60.8187 57.7823 60.3485 58.1301 59.8382 58.4073Z" fill="#444444"/>
<path d="M45.3613 20.5888C45.2244 20.3171 45.199 20.0012 45.2906 19.7104C45.4023 19.4392 45.42 19.1372 45.3408 18.8543C45.2615 18.5714 45.0901 18.3244 44.8546 18.154C44.6354 17.945 44.5068 17.6559 44.4969 17.3503C44.4871 17.0447 44.5969 16.7476 44.8022 16.5245C45.0074 16.3013 45.2914 16.1703 45.5915 16.1603C45.8916 16.1503 46.1833 16.2621 46.4025 16.4711C46.9528 16.9402 47.3481 17.5704 47.5347 18.276C47.7214 18.9817 47.6904 19.7288 47.4459 20.4159C47.3723 20.648 47.2284 20.8505 47.0347 20.9941C46.8411 21.1378 46.6078 21.2153 46.3682 21.2155C46.2502 21.2156 46.133 21.1967 46.0208 21.1595C45.7354 21.0657 45.4982 20.8605 45.3613 20.5888Z" stroke="#444444" stroke-width="0.6"/>
<path d="M47.484 44.8855H47.4795C47.3308 44.8862 47.1838 44.9166 47.0466 44.9751C46.9095 45.0335 46.7851 45.119 46.6804 45.2264C46.5757 45.3339 46.4928 45.4613 46.4365 45.6014C46.3801 45.7415 46.3514 45.8915 46.352 46.0428C46.3572 47.1988 46.2421 47.3246 45.6897 47.9279C45.485 48.1516 45.376 48.4489 45.3866 48.7545C45.3972 49.06 45.5266 49.3487 45.7463 49.5572C45.9659 49.7656 46.2579 49.8766 46.558 49.8658C46.858 49.8549 47.1416 49.7232 47.3462 49.4995C48.29 48.4687 48.6238 47.787 48.616 46.0329C48.6146 45.7282 48.4948 45.4363 48.2826 45.2213C48.0705 45.0063 47.7833 44.8855 47.484 44.8855Z" stroke="#444444" stroke-width="0.6"/>
<path d="M47.295 24.4824C47.2383 24.1823 47.3009 23.8715 47.4692 23.6183C47.6375 23.366 47.8971 23.1918 48.1912 23.134C48.4854 23.0762 48.79 23.1396 49.0384 23.3101C49.1393 23.3799 51.5256 25.0555 51.7953 27.7561C51.8788 28.7533 51.75 29.7571 51.4177 30.699C51.0854 31.6409 50.5573 32.4987 49.8696 33.2138C49.6492 33.4125 49.3616 33.516 49.0675 33.5024C48.7735 33.4888 48.4962 33.3592 48.2944 33.141C48.0926 32.9228 47.9821 32.6332 47.9864 32.3336C47.9906 32.0339 48.1093 31.7476 48.3172 31.5355C48.7562 31.066 49.0927 30.5073 49.3045 29.896C49.5163 29.2847 49.5987 28.6346 49.5462 27.9886C49.3851 26.3729 47.7881 25.2301 47.7719 25.2189C47.5233 25.0475 47.3518 24.7826 47.295 24.4824Z" stroke="#444444" stroke-width="0.6"/>
<path fill-rule="evenodd" clip-rule="evenodd" d="M64.894 76.8783H77.4021C77.7023 76.8783 77.9902 76.9997 78.2025 77.2159C78.4148 77.4321 78.5341 77.7253 78.5341 78.031C78.5341 78.3367 78.4148 78.6299 78.2025 78.846C77.9902 79.0622 77.7023 79.1836 77.4021 79.1836H2.76476C2.46453 79.1836 2.17661 79.0622 1.96432 78.846C1.75203 78.6299 1.63277 78.3367 1.63277 78.031C1.63277 77.7253 1.75203 77.4321 1.96432 77.2159C2.17661 76.9997 2.46453 76.8783 2.76476 76.8783H15.2729V59.1259C15.0325 59.1557 14.7906 59.1713 14.5484 59.1726C12.8709 59.1697 11.2629 58.4897 10.0767 57.2818C8.89059 56.0739 8.22302 54.4364 8.22028 52.7282V52.6663C7.16062 52.5199 6.15464 52.1026 5.29618 51.4534C4.43771 50.8041 3.75473 49.944 3.31096 48.9532C2.86718 47.9625 2.67707 46.8735 2.75835 45.7878C2.83963 44.702 3.18966 43.6549 3.77578 42.7441C3.04971 42.0927 2.48015 41.2803 2.11096 40.3694C1.74177 39.4586 1.5828 38.4736 1.64628 37.4904C1.70977 36.5071 1.99402 35.5518 2.47715 34.698C2.96028 33.8442 3.6294 33.1148 4.43298 32.5657C3.92361 31.0938 3.95682 29.4835 4.52644 28.0345C5.09605 26.5856 6.16327 25.3968 7.52945 24.6894C7.4667 24.3278 7.4351 23.9612 7.43501 23.594C7.43686 22.0891 7.95502 20.6322 8.89992 19.4751C9.84481 18.318 11.1571 17.5334 12.6098 17.257C12.6695 15.5898 13.3619 14.0111 14.5414 12.8531C15.7208 11.6951 17.2953 11.0481 18.9337 11.0481C20.5721 11.0481 22.1466 11.6951 23.3261 12.8531C24.5055 14.0111 25.1979 15.5898 25.2576 17.257C25.6219 17.3283 25.9792 17.433 26.3249 17.5698C26.2264 17.0753 26.1765 16.572 26.1762 16.0674C26.1783 14.2382 26.8211 12.4697 27.9892 11.0799C29.1572 9.69015 30.7738 8.77021 32.5483 8.48549C32.5494 6.45035 33.3444 4.49903 34.7584 3.06077C36.1725 1.62252 38.0897 0.815151 40.0883 0.816285C42.0869 0.817422 44.0032 1.62697 45.4156 3.06683C46.8281 4.50669 47.621 6.45892 47.6199 8.49405C49.3936 8.77757 51.0098 9.69617 52.1779 11.0847C53.346 12.4732 53.9892 14.2405 53.992 16.0687C53.9917 16.5727 53.9421 17.0753 53.8438 17.5692C54.1897 17.4319 54.5469 17.3264 54.9111 17.2537C54.9696 15.5848 55.6621 14.0043 56.8426 12.8451C58.0231 11.6859 59.5995 11.0387 61.2394 11.0398C62.8794 11.0409 64.4549 11.6903 65.6339 12.851C66.8129 14.0118 67.5033 15.5933 67.5596 17.2622C69.0116 17.5375 70.3235 18.3207 71.2684 19.4766C72.2134 20.6324 72.7319 22.0881 72.7344 23.592C72.7343 23.9593 72.7027 24.3258 72.64 24.6874C74.0061 25.3953 75.0731 26.5847 75.6423 28.034C76.2114 29.4833 76.244 31.0938 75.7339 32.5657C76.5374 33.1148 77.2066 33.8442 77.6897 34.698C78.1728 35.5518 78.4571 36.5071 78.5206 37.4904C78.584 38.4736 78.4251 39.4586 78.0559 40.3694C77.6867 41.2803 77.1171 42.0927 76.3911 42.7441C76.9772 43.6549 77.3272 44.702 77.4085 45.7878C77.4898 46.8735 77.2997 47.9625 76.8559 48.9532C76.4121 49.944 75.7291 50.8041 74.8707 51.4534C74.0122 52.1026 73.0062 52.5199 71.9466 52.6663V52.7282C71.9438 54.4364 71.2763 56.0739 70.0901 57.2818C68.904 58.4897 67.296 59.1697 65.6184 59.1726C65.3763 59.1713 65.1344 59.1557 64.894 59.1259V76.8783ZM57.195 18.6183C57.1503 18.7781 57.0723 18.9262 56.9662 19.0525C56.7859 19.2578 56.5418 19.3937 56.2747 19.4372C57.1754 20.4883 57.7778 21.7695 58.0171 23.1431C58.2564 24.5166 58.1237 25.9307 57.6331 27.2332C58.6383 27.8802 59.4787 28.7605 60.0854 29.802C60.6921 30.8435 61.0479 32.0165 61.1236 33.225C61.1994 34.4335 60.9929 35.6431 60.5211 36.7547C60.0493 37.8662 59.3256 38.8482 58.4093 39.6201C59.1624 40.715 59.6216 41.9912 59.7414 43.3224C59.8612 44.6536 59.6374 45.9936 59.0922 47.2097C58.547 48.4257 57.6994 49.4757 56.6331 50.2555C55.5669 51.0354 54.3191 51.5181 53.0133 51.6559C53.0204 51.7613 53.0204 51.8654 53.0204 51.9694C53.0199 52.4811 52.9692 52.9915 52.869 53.4929C53.0179 54.3087 53.4048 55.0597 53.9792 55.6482C54.5537 56.2366 55.2889 56.635 56.0891 56.7915C56.8893 56.9479 57.7172 56.8551 58.4648 56.5252C59.2124 56.1953 59.845 55.6436 60.28 54.942C60.3823 54.7785 60.5235 54.644 60.6904 54.5507C60.8574 54.4575 61.0447 54.4086 61.2351 54.4086C61.4254 54.4086 61.6128 54.4575 61.7797 54.5507C61.9466 54.644 62.0878 54.7785 62.1901 54.942C62.6608 55.6994 63.3604 56.2806 64.1836 56.5979C65.0068 56.9153 65.909 56.9518 66.7543 56.7018C67.5996 56.4518 68.3422 55.929 68.8703 55.2119C69.3985 54.4949 69.6836 53.6225 69.6826 52.7262C69.681 52.4159 69.6456 52.1066 69.5772 51.8041C69.5377 51.6278 69.5396 51.4445 69.5826 51.2691C69.6256 51.0937 69.7085 50.931 69.8247 50.7943C69.9409 50.6576 70.0871 50.5506 70.2514 50.4821C70.4157 50.4136 70.5936 50.3854 70.7706 50.3998C70.8786 50.4091 70.9873 50.4176 71.0979 50.4176C71.9033 50.4181 72.6907 50.1747 73.3601 49.7185C74.0294 49.2623 74.5505 48.6138 74.8571 47.8554C75.1637 47.097 75.242 46.2629 75.0821 45.4591C74.9222 44.6553 74.5312 43.918 73.9589 43.3409C73.8346 43.2155 73.7405 43.0624 73.6841 42.8938C73.6276 42.7251 73.6104 42.5454 73.6336 42.3688C73.6569 42.1922 73.72 42.0235 73.8181 41.8759C73.9162 41.7284 74.0465 41.606 74.1989 41.5184C74.8586 41.1408 75.4015 40.583 75.7666 39.908C76.1316 39.233 76.3041 38.4676 76.2648 37.6981C76.2255 36.9286 75.9758 36.1855 75.5439 35.5528C75.112 34.92 74.5151 34.4227 73.8205 34.1169C73.6742 34.0524 73.543 33.9572 73.4355 33.8375C73.3279 33.7178 73.2463 33.5763 73.1962 33.4222C73.1461 33.2682 73.1285 33.1051 73.1445 32.9437C73.1606 32.7822 73.21 32.626 73.2894 32.4854C73.5936 31.9472 73.7747 31.3462 73.8194 30.727C73.864 30.1077 73.771 29.4862 73.5472 28.9086C73.3235 28.331 72.9747 27.8122 72.5269 27.3908C72.0791 26.9694 71.5438 26.6561 70.9608 26.4744C70.8145 26.4284 70.679 26.3528 70.5623 26.252C70.4456 26.1513 70.3501 26.0275 70.2817 25.8881C70.2132 25.7487 70.1733 25.5967 70.1641 25.4412C70.155 25.2856 70.1769 25.1298 70.2285 24.9832C70.4509 24.3589 70.522 23.6891 70.4358 23.0308C70.3496 22.3726 70.1086 21.7452 69.7334 21.2021C69.3581 20.6589 68.8596 20.2161 68.2803 19.9111C67.7009 19.6061 67.0578 19.4481 66.4057 19.4503C66.2393 19.4506 66.0749 19.4149 65.9231 19.3457C65.7714 19.2764 65.6358 19.1751 65.5253 19.0486C65.4164 18.9243 65.335 18.7776 65.2866 18.6185C65.2382 18.4594 65.2238 18.2916 65.2446 18.1264C65.2791 17.9161 65.2973 17.7034 65.2989 17.4901C65.2989 16.3926 64.8707 15.3399 64.1085 14.5638C63.3464 13.7877 62.3126 13.3517 61.2347 13.3517C60.1569 13.3517 59.1231 13.7877 58.3609 14.5638C57.5988 15.3399 57.1706 16.3926 57.1706 17.4901C57.1722 17.7034 57.1904 17.9161 57.2249 18.1264C57.2499 18.2906 57.2397 18.4584 57.195 18.6183ZM48.9558 58.7748C47.8837 59.3434 46.6928 59.6408 45.484 59.6416C45.0969 59.6388 44.7107 59.6055 44.3287 59.5421V76.8783H57.5762V59.1259C57.336 59.1557 57.0943 59.1713 56.8523 59.1726C55.8268 59.1687 54.8175 58.9121 53.9104 58.4249C53.0034 57.9377 52.2255 57.2342 51.6433 56.3746C50.9497 57.3828 50.0279 58.2061 48.9558 58.7748ZM28.8167 18.3319C28.8075 18.4874 28.7674 18.6393 28.6989 18.7785C28.6303 18.918 28.5346 19.0419 28.4176 19.1426C28.3007 19.2434 28.1649 19.3189 28.0184 19.3647C27.2624 19.6006 26.5683 20.0069 25.9877 20.5535C25.4071 21.1001 24.955 21.7729 24.6649 22.5219C24.3747 23.2709 24.2541 24.0768 24.3119 24.8798C24.3698 25.6828 24.6046 26.4622 24.9989 27.16C25.0782 27.3008 25.1275 27.4571 25.1435 27.6186C25.1595 27.7801 25.1418 27.9432 25.0916 28.0972C25.0414 28.2513 24.9598 28.3928 24.8522 28.5126C24.7446 28.6324 24.6134 28.7276 24.4672 28.7922C23.5665 29.1889 22.7926 29.8339 22.2327 30.6544C21.6727 31.475 21.349 32.4385 21.298 33.4364C21.247 34.4343 21.4708 35.4268 21.9441 36.3021C22.4175 37.1774 23.1215 37.9007 23.9769 38.3903C24.1296 38.4774 24.2605 38.5994 24.3592 38.7466C24.4579 38.8939 24.5217 39.0624 24.5457 39.239C24.5696 39.4156 24.553 39.5955 24.4972 39.7644C24.4414 39.9334 24.3479 40.0869 24.224 40.2129C23.4815 40.9611 22.9743 41.9172 22.7667 42.9596C22.5591 44.0021 22.6605 45.0839 23.058 46.0675C23.4555 47.0511 24.1312 47.8923 24.9992 48.484C25.8672 49.0757 26.8884 49.3913 27.933 49.3908C28.0767 49.3908 28.2165 49.3797 28.3569 49.3685L28.3586 49.3684C28.5357 49.354 28.7137 49.3823 28.878 49.4509C29.0424 49.5196 29.1886 49.6267 29.3048 49.7635C29.421 49.9004 29.5039 50.0631 29.5469 50.2387C29.5898 50.4142 29.5916 50.5976 29.5521 50.774C29.2694 52.0083 29.4256 53.3048 29.9929 54.4329C30.5602 55.5611 31.5019 56.448 32.6507 56.936C33.7995 57.424 35.0809 57.4815 36.2674 57.0984C37.4539 56.7152 38.4686 55.9162 39.1313 54.8432C39.2335 54.6794 39.3746 54.5446 39.5416 54.4512C39.7086 54.3577 39.8961 54.3088 40.0867 54.3088C40.2772 54.3088 40.4647 54.3577 40.6317 54.4512C40.7987 54.5446 40.9398 54.6794 41.042 54.8432C41.7066 55.9125 42.7213 56.7079 43.9064 57.0887C45.0915 57.4695 46.3707 57.4111 47.5177 56.9239C48.6646 56.4367 49.6053 55.552 50.1733 54.4265C50.7413 53.301 50.8999 52.0071 50.6212 50.774C50.5817 50.5976 50.5835 50.4142 50.6264 50.2387C50.6694 50.0631 50.7523 49.9004 50.8685 49.7635C50.9847 49.6267 51.1309 49.5196 51.2953 49.4509C51.4596 49.3823 51.6376 49.354 51.8147 49.3684L51.8164 49.3685C51.9568 49.3797 52.0966 49.3908 52.2403 49.3908C53.2847 49.391 54.3057 49.0752 55.1735 48.4834C56.0413 47.8916 56.7169 47.0506 57.1143 46.0671C57.5118 45.0836 57.6133 44.002 57.4058 42.9596C57.1984 41.9173 56.6914 40.9612 55.9493 40.2129C55.8252 40.0874 55.7313 39.9343 55.6749 39.7656C55.6186 39.5969 55.6015 39.4173 55.6248 39.2407C55.6481 39.0641 55.7112 38.8955 55.8093 38.7479C55.9074 38.6004 56.0377 38.478 56.19 38.3903C57.0452 37.9004 57.749 37.1769 58.2221 36.3014C58.6952 35.4259 58.9186 34.4333 58.8673 33.4354C58.816 32.4375 58.492 31.474 57.9317 30.6537C57.3714 29.8333 56.5973 29.1886 55.6964 28.7922C55.5502 28.7276 55.419 28.6324 55.3114 28.5126C55.2038 28.3928 55.1222 28.2513 55.072 28.0972C55.0218 27.9432 55.0042 27.7801 55.0201 27.6186C55.0361 27.4571 55.0854 27.3008 55.1647 27.16C55.5591 26.4624 55.794 25.6832 55.852 24.8804C55.9101 24.0776 55.7897 23.2718 55.4999 22.5228C55.2101 21.7739 54.7584 21.101 54.1781 20.5543C53.5979 20.0076 52.9042 19.601 52.1484 19.3647C52.0024 19.3187 51.8669 19.243 51.7503 19.1423C51.6337 19.0415 51.5383 18.9178 51.4699 18.7786C51.4015 18.6393 51.3615 18.4874 51.3522 18.3319C51.343 18.1765 51.3648 18.0208 51.4162 17.8741C51.7036 17.0646 51.795 16.1965 51.6828 15.3434C51.5705 14.4902 51.2579 13.6772 50.7714 12.9732C50.285 12.2693 49.6389 11.6952 48.8882 11.2996C48.1375 10.9039 47.3041 10.6985 46.4588 10.7006C46.2916 10.7009 46.1262 10.6653 45.9735 10.5961C45.8208 10.5268 45.6842 10.4255 45.5726 10.2988C45.4627 10.1744 45.3803 10.0274 45.3311 9.86769C45.2819 9.70802 45.2669 9.53943 45.2873 9.37337C45.3317 9.10099 45.3551 8.82548 45.3572 8.54938C45.3572 7.12566 44.8018 5.76025 43.8131 4.75353C42.8244 3.74681 41.4835 3.18124 40.0854 3.18124C38.6872 3.18124 37.3463 3.74681 36.3576 4.75353C35.369 5.76025 34.8135 7.12566 34.8135 8.54938C34.8156 8.82548 34.839 9.10099 34.8834 9.37337C34.9084 9.53771 34.8982 9.70559 34.8535 9.86554C34.8088 10.0255 34.7308 10.1737 34.6247 10.3001C34.5033 10.4373 34.3529 10.5445 34.1847 10.6135C34.0166 10.6826 33.8352 10.7117 33.6544 10.6986C32.8137 10.7059 31.987 10.9183 31.2435 11.3179C30.5 11.7176 29.8615 12.293 29.3814 12.9958C28.9013 13.6985 28.5937 14.5083 28.4843 15.3571C28.3748 16.2059 28.4668 17.069 28.7526 17.8741C28.8041 18.0208 28.8259 18.1765 28.8167 18.3319ZM26.2564 58.4249C25.3494 58.9121 24.34 59.1687 23.3145 59.1726C23.0725 59.1713 22.8309 59.1557 22.5907 59.1259V76.8783H35.8382V59.5421C34.4495 59.7739 33.0247 59.5993 31.7298 59.0385C30.4348 58.4777 29.3229 57.5539 28.5236 56.3746C27.9413 57.2342 27.1635 57.9377 26.2564 58.4249ZM10.5897 51.8061C10.5212 52.1086 10.4859 52.4178 10.4843 52.7282C10.484 53.6234 10.769 54.4945 11.2965 55.2106C11.8246 55.9276 12.5673 56.4505 13.4126 56.7005C14.2579 56.9505 15.16 56.914 15.9832 56.5966C16.8064 56.2792 17.506 55.6981 17.9767 54.9407C18.079 54.7772 18.2202 54.6427 18.3871 54.5494C18.5541 54.4562 18.7414 54.4073 18.9318 54.4073C19.1222 54.4073 19.3095 54.4562 19.4764 54.5494C19.6433 54.6427 19.7845 54.7772 19.8869 54.9407C20.3218 55.6422 20.9544 56.194 21.702 56.5239C22.4496 56.8538 23.2775 56.9466 24.0777 56.7902C24.8779 56.6337 25.6132 56.2353 26.1876 55.6468C26.762 55.0584 27.1489 54.3073 27.2978 53.4916C27.1981 52.9906 27.1479 52.4807 27.1477 51.9694C27.1477 51.8654 27.1503 51.7613 27.1548 51.6559C25.8485 51.5183 24.6002 51.0354 23.5337 50.2552C22.4671 49.475 21.6193 48.4244 21.0743 47.2078C20.5292 45.9911 20.3059 44.6505 20.4264 43.3189C20.547 41.9873 21.0072 40.7108 21.7614 39.6161C20.8451 38.8442 20.1214 37.8623 19.6496 36.7507C19.1778 35.6391 18.9714 34.4296 19.0471 33.2211C19.1228 32.0126 19.4786 30.8396 20.0853 29.7981C20.692 28.7566 21.5324 27.8763 22.5376 27.2292C22.0468 25.9254 21.9146 24.5099 22.1552 23.1353C22.3959 21.7606 23.0002 20.4788 23.9031 19.4279C23.6406 19.3846 23.4007 19.2503 23.2239 19.0479C23.1151 18.9236 23.0337 18.7769 22.9853 18.6179C22.9368 18.4588 22.9225 18.291 22.9432 18.1258C22.9778 17.9155 22.9959 17.7027 22.9975 17.4895C22.9975 16.3919 22.5694 15.3393 21.8072 14.5632C21.045 13.7871 20.0113 13.3511 18.9334 13.3511C17.8555 13.3511 16.8218 13.7871 16.0596 14.5632C15.2974 15.3393 14.8692 16.3919 14.8692 17.4895C14.8708 17.7027 14.889 17.9155 14.9236 18.1258C14.9485 18.29 14.9383 18.4578 14.8937 18.6176C14.849 18.7774 14.7709 18.9256 14.6648 19.0518C14.5452 19.1877 14.397 19.2941 14.2311 19.3633C14.0653 19.4324 13.8863 19.4624 13.7075 19.451C13.0602 19.4582 12.424 19.6232 11.8521 19.9321C11.2803 20.241 10.7894 20.6849 10.4205 21.2266C10.0517 21.7684 9.81561 22.3921 9.73205 23.0458C9.64849 23.6995 9.71989 24.364 9.94025 24.9838C9.99185 25.1306 10.0137 25.2865 10.0044 25.4422C9.99516 25.5978 9.955 25.7499 9.88638 25.8893C9.81775 26.0287 9.72209 26.1525 9.60516 26.2531C9.48823 26.3538 9.35247 26.4293 9.20608 26.475C8.62302 26.6568 8.0877 26.97 7.63991 27.3915C7.19212 27.8129 6.84338 28.3317 6.61963 28.9093C6.39587 29.4869 6.30285 30.1084 6.34748 30.7276C6.39211 31.3469 6.57325 31.9479 6.87742 32.486C6.95688 32.6267 7.00626 32.7829 7.02232 32.9443C7.03838 33.1058 7.02077 33.2688 6.97063 33.4229C6.92049 33.5769 6.83896 33.7184 6.73138 33.8381C6.6238 33.9579 6.49259 34.0531 6.34636 34.1176C5.65175 34.4233 5.05484 34.9207 4.62296 35.5534C4.19107 36.1862 3.94138 36.9292 3.90204 37.6987C3.86269 38.4683 4.03526 39.2337 4.40029 39.9087C4.76532 40.5837 5.30828 41.1414 5.96795 41.519C6.12032 41.6066 6.25066 41.729 6.34874 41.8766C6.44681 42.0242 6.50996 42.1929 6.53321 42.3695C6.55647 42.5461 6.5392 42.7258 6.48276 42.8944C6.42632 43.0631 6.33225 43.2161 6.20793 43.3415C5.63518 43.9186 5.24384 44.656 5.08366 45.46C4.92348 46.2641 5.00169 47.0985 5.30836 47.8571C5.61502 48.6158 6.13629 49.2645 6.8059 49.7208C7.47552 50.1771 8.26324 50.4203 9.06895 50.4196C9.17956 50.4196 9.28823 50.411 9.39625 50.4018C9.57325 50.3874 9.75111 50.4156 9.91543 50.4841C10.0797 50.5526 10.2259 50.6596 10.3421 50.7963C10.4583 50.933 10.5413 51.0957 10.5843 51.2711C10.6273 51.4465 10.6291 51.6298 10.5897 51.8061ZM17.5349 58.4073V76.8783L20.3267 76.8789V58.4073C19.8171 58.1299 19.3475 57.7821 18.9315 57.3738C18.5147 57.7819 18.0448 58.1296 17.5349 58.4073ZM38.1002 58.8025V76.8783L42.0647 76.8809V58.8025C41.3284 58.4208 40.659 57.9181 40.0834 57.3145C39.5073 57.9183 38.8372 58.421 38.1002 58.8025ZM59.8382 58.4073V76.8783L62.63 76.8789V58.4073C62.1208 58.1295 61.6516 57.7817 61.2354 57.3738C60.8187 57.7823 60.3485 58.1301 59.8382 58.4073Z" stroke="#444444" stroke-width="0.6"/>
</svg>
