<svg width="106" height="214" viewBox="0 0 106 214" fill="none" xmlns="http://www.w3.org/2000/svg">
<path d="M53.1558 177C77.4563 177 97.1558 145.66 97.1558 107C97.1558 68.3401 77.4563 37 53.1558 37C28.8552 37 9.15576 68.3401 9.15576 107C9.15576 145.66 28.8552 177 53.1558 177Z" fill="#C4C4C4"/>
<path d="M62.829 197C62.829 197 63.2743 191.034 62.829 187.319C62.4106 183.828 60.7676 178.663 60.7676 178.663" stroke="black" stroke-width="2" stroke-linecap="round" stroke-linejoin="round"/>
<path d="M60.8308 178.809C60.8308 178.809 60.6187 176.405 60.4827 174.865L60.8308 178.809ZM60.1347 170.921C60.1347 170.921 60.3468 173.325 60.4827 174.865L60.1347 170.921ZM60.1347 170.921C60.1347 170.921 60.0034 168.517 59.9193 166.977L60.1347 170.921ZM60.1347 170.921C60.1347 170.921 63.8284 167.566 68.3614 163.982C70.9133 161.964 73.9473 160 76.2083 158.212L60.1347 170.921ZM53.9963 73.9961C54.2134 78.3889 54.3351 80.8517 54.5521 85.2444L53.9963 73.9961ZM53.9963 73.9961C53.7938 73.8208 46.3392 63.1131 46.3392 63.1131L53.9963 73.9961ZM53.9963 73.9961C53.9163 72.5414 53.8714 71.7258 53.7914 70.2711L53.9963 73.9961ZM52.9838 55.5899C53.0842 57.4155 53.1405 58.439 53.241 60.2645L52.9838 55.5899ZM60.4827 174.865C55.2788 172.547 50.7905 171.931 46.7189 170.117C41.7703 167.914 37.2864 164.535 30.9617 161.718L60.4827 174.865ZM59.9193 166.977C59.8555 165.807 59.8196 165.152 59.7558 163.982L59.9193 166.977ZM59.9193 166.977C56.8122 165.435 54.7871 163.544 51.3385 161.718C46.4639 159.137 43.6034 157.939 38.4289 156.313L59.9193 166.977ZM59.7558 163.982C64.1544 159.561 66.6205 157.082 71.0191 152.661L59.7558 163.982ZM59.7558 163.982C59.5331 161.615 59.4082 160.287 59.1855 157.92L59.7558 163.982ZM59.1855 157.92C56.1952 155.438 55.5151 153.172 51.5283 151.565C46.2712 149.446 43.5446 147.603 38.4289 145.065L59.1855 157.92ZM59.1855 157.92C59.1855 156.75 59.1855 156.094 59.1855 154.925V157.92ZM59.1855 154.925C59.1855 154.383 59.1917 154.079 59.1855 153.537C59.1555 150.948 59.0578 149.49 58.7425 146.927L59.1855 154.925ZM59.1855 154.925C60.3964 152.329 60.9939 151.702 62.4761 149.301C66.05 143.512 70.3231 141.486 74.8794 137.322L59.1855 154.925ZM58.7425 146.927C58.5695 144.346 58.4979 142.896 58.2995 140.317C58.1677 138.604 58.0876 137.645 57.9334 135.934L58.7425 146.927ZM58.7425 146.927C56.6666 145.087 55.8203 143.516 53.6799 141.778C48.927 137.917 45.8042 136.456 40.5172 133.67L58.7425 146.927ZM58.7425 146.927C59.4221 144.716 59.6257 143.393 60.4827 141.266C62.7811 135.562 69.3739 128.85 69.3739 128.85L58.7425 146.927ZM57.9334 135.934C55.0861 132.882 53.7208 130.856 50.6424 128.119C47.0831 124.955 44.8921 123.405 40.8337 121.18L57.9334 135.934ZM57.9334 135.934C57.7356 133.567 57.6247 132.24 57.4269 129.872L57.9334 135.934ZM57.4269 129.872C57.8321 129.054 61.4259 124.175 63.1722 121.838C64.9185 119.5 66.952 118.098 69.3739 115.702L57.4269 129.872ZM57.4269 129.872C57.2076 127.248 57.0847 125.777 56.8655 123.152L57.4269 129.872ZM56.8655 123.152C56.7583 121.869 56.5909 119.866 56.5909 119.866C56.5909 119.866 56.5662 119.465 56.5503 119.208L56.8655 123.152ZM56.8655 123.152C56.6458 122.685 51.233 117.066 48.5541 114.314C45.8751 111.563 41.9202 108.502 37.6696 104.965L56.8655 123.152ZM56.5503 119.208C56.8025 118.741 60.4372 113.219 62.223 110.516C64.0088 107.814 65.5511 106.189 68.0449 104.381L56.5503 119.208ZM56.5503 119.208C56.3338 115.7 56.2124 113.733 55.9959 110.224L56.5503 119.208ZM55.9959 110.224C55.8138 110.107 49.9463 104.478 47.0353 101.678C44.1243 98.8786 43.9931 98.7356 41.4032 95.5431L55.9959 110.224ZM55.9959 110.224C55.9272 109.112 55.8887 108.488 55.8201 107.376L55.9959 110.224ZM55.8201 107.376C55.9607 107.025 59.9448 98.4647 63.1722 95.8352L55.8201 107.376ZM55.8201 107.376C55.5912 103.667 55.4629 101.588 55.2341 97.8804L55.8201 107.376ZM55.2341 97.8804C55.0033 97.6466 43.9345 85.2444 43.9345 85.2444L55.2341 97.8804ZM55.2341 97.8804C55.139 96.3401 55.0857 95.4765 54.9906 93.9362L55.2341 97.8804ZM54.9906 93.9362C54.973 93.6509 54.9629 93.491 54.9456 93.2058C54.757 90.0992 54.6709 88.3555 54.5521 85.2444L54.9906 93.9362ZM54.9906 93.9362C57.988 90.171 59.6686 88.06 62.666 84.2949L54.9906 93.9362ZM54.5521 85.2444C51.1224 81.4222 49.1994 79.2792 45.7697 75.457L54.5521 85.2444ZM54.3789 81.7384C54.3789 81.5047 61.0206 73.1197 61.0206 73.1197L54.3789 81.7384ZM53.7914 70.2711C55.4531 67.9606 56.3847 66.6653 58.0464 64.3548L53.7914 70.2711ZM53.7914 70.2711C53.5764 66.3633 53.4559 64.1723 53.241 60.2645L53.7914 70.2711ZM53.241 60.2645C52.325 59.0095 51.8115 58.3058 50.8955 57.0508L53.241 60.2645ZM63.4253 187.501L59.755 188.889V188.012C59.755 188.012 57.6978 189.166 56.2745 189.327C55.635 189.399 54.6291 189.327 54.6291 189.327L55.5784 188.012C55.5784 188.012 54.2441 188.586 53.3635 188.743C52.1606 188.958 50.326 188.524 50.326 188.524L51.0221 187.501H45.8329L47.0353 186.259C47.0353 186.259 45.7552 186.316 44.947 186.186C44.1395 186.057 43.7324 185.776 42.922 185.675C42.2832 185.595 41.2766 185.602 41.2766 185.602C41.2766 185.602 41.7291 184.987 41.8462 184.506C41.9666 184.012 41.8462 183.192 41.8462 183.192C41.8462 183.192 39.9477 184.433 39.6946 184.506C39.4548 184.576 39.2993 184.428 39.0618 184.506C38.5902 184.662 38.2391 185.602 38.2391 185.602C38.2391 185.602 37.6211 184.718 37.6063 184.506C37.5914 184.295 38.2391 183.192 38.2391 183.192L37.1 184.141C37.1 184.141 36.5612 183.661 36.1508 183.557C35.7397 183.453 35.075 183.63 35.075 183.63L36.1508 182.315L36.9102 181.22L33.3664 181.95C33.3664 181.95 33.12 181.619 33.1765 181.293C33.2048 181.13 33.1765 180.854 33.1765 180.854C33.1765 180.854 32.2319 181.108 31.6578 180.927C31.1089 180.755 30.4554 180.051 30.4554 180.051C30.4554 180.051 31.1449 180.023 31.4046 179.686C31.5815 179.456 31.6578 178.955 31.6578 178.955C31.6578 178.955 31.2287 178.897 30.9617 178.955C30.614 179.031 30.139 179.394 30.139 179.394L27.7343 178.371L28.4937 177.568C28.4937 177.568 27.6302 177.518 27.1015 177.348C26.7218 177.227 24.9499 175.961 24.9499 175.961L26.7218 174.062H24.317L24.6335 173.331C24.6335 173.331 24.3803 173.404 23.9374 173.258C23.4944 173.112 22.292 172.016 22.1022 171.651C21.9292 171.319 21.7225 170.702 21.7225 170.702H22.8616L22.2287 170.117L21.0264 168.876L21.7225 168.511L19.824 166.977L17.5459 163.982C17.5459 163.982 18.9093 164.271 19.6342 163.836C20.2551 163.463 20.8365 162.302 20.8365 162.302L19.6342 162.083C19.6342 162.083 18.8619 161.43 18.8748 161.28C18.8877 161.129 19.6342 160.622 19.6342 160.622L16.5966 160.111L15.0146 159.161C15.0146 159.161 16.1458 159.256 16.7865 158.942C17.1966 158.741 17.7357 158.212 17.7357 158.212C17.7357 158.212 16.6618 158.183 16.0271 157.92C14.9848 157.487 13.8122 155.875 13.8122 155.875H15.0146C15.0592 155.711 15.0601 155.599 15.0146 155.436L13.9388 155.217L11.9138 153.391H12.7364C12.7364 153.106 12.7364 152.946 12.7364 152.661C12.7364 152.661 11.0963 151.924 10.395 150.981C9.93368 150.361 9.50899 149.155 9.50899 149.155C9.50899 149.155 10.2006 149.308 10.6481 149.301C11.7421 149.284 13.306 148.278 13.306 148.278C13.448 147.935 13.5316 147.707 13.4958 147.329L11.1544 146.671L9.50899 145.065L10.9012 144.772C10.7035 144.516 10.5927 144.372 10.395 144.115L9.25586 144.407L8.18007 143.312L10.0153 142.581L10.9012 142.216L9.25586 141.266L7.29412 140.098H9.00273L7.67381 139.221L6.2816 137.98L7.29412 137.541C6.87224 137.274 6.00317 136.723 5.90192 136.665C5.80067 136.606 5.14253 136.081 5.01596 135.861C4.8894 135.642 5.01596 135.058 5.01596 135.058C5.01596 135.058 5.25515 135.379 5.45894 135.496C5.83471 135.713 6.53474 135.496 6.53474 135.496L4.82612 134.035L3.11751 131.625L2.23155 129.872C2.23155 129.872 3.61008 130.236 4.50971 130.31C5.1999 130.368 5.63998 130.609 6.2816 130.31C6.54884 130.186 6.91443 129.872 6.91443 129.872L4.82612 127.17L3.87689 125.709L5.45894 125.344C5.45894 125.344 4.86318 124.973 4.50971 124.686C3.90891 124.198 3.11751 123.225 3.11751 123.225L2.80109 121.838C2.80109 121.838 3.43663 122.197 3.87689 122.276C4.2432 122.342 4.82612 122.276 4.82612 122.276C4.82612 122.276 3.91613 121.503 3.43391 120.888C2.74813 120.014 2.04171 118.332 2.04171 118.332L4.13002 118.697C4.13002 118.697 2.80633 116.991 2.23155 115.702C1.71631 114.547 1.47421 113.842 1.28232 112.562C1.16824 111.801 1.15576 110.589 1.15576 110.589C1.15576 110.589 3.32343 111.779 4.50971 112.781C4.977 113.175 5.64878 113.657 5.64878 113.657C5.64878 113.657 5.57905 112.975 5.45894 112.562C5.1401 111.463 3.87689 110.224 3.87689 110.224L3.43391 109.202C3.43391 109.202 3.75888 108.938 3.87689 108.69C4.21825 107.975 3.11751 106.791 3.11751 106.791L2.80109 105.696H3.43391L2.23155 104.016V101.678C2.23155 101.678 2.87533 102.503 3.43391 102.628C3.7008 102.688 4.13002 102.628 4.13002 102.628L2.80109 97.8804V95.1048C2.80109 95.1048 3.54904 95.9667 4.13002 96.3465C4.81001 96.7911 6.02848 97.0769 6.02848 97.0769V96.7117C6.02848 96.7117 5.06819 95.3044 4.95268 94.2283C4.91014 93.832 4.95268 93.2058 4.95268 93.2058L4.76284 91.3798L6.02848 91.5989L5.14253 90.1381V88.239L6.21832 88.7503L5.64878 86.8513L5.39566 85.8287C5.39566 85.8287 5.78838 85.7611 6.02848 85.8287C6.37475 85.9262 6.78786 86.413 6.78786 86.413C6.78786 86.413 6.19054 84.4799 6.21832 83.1992C6.24308 82.0579 6.78786 80.3507 6.78786 80.3507C6.78786 80.3507 7.75289 81.6829 8.43319 82.4688C9.22518 83.3838 10.5848 84.6601 10.5848 84.6601L10.2684 83.1992C10.2684 83.1992 10.1423 82.1309 9.88868 81.5193C9.68152 81.0198 9.19258 80.3507 9.19258 80.3507L10.0153 79.4011C10.0153 79.4011 9.67474 77.9465 9.63555 76.9908C9.62153 76.6489 9.63555 76.1143 9.63555 76.1143L11.0278 76.6256C11.0278 76.6256 10.9973 75.6008 11.0278 74.9457C11.0625 74.2002 11.2177 73.0466 11.2177 73.0466L11.8505 74.0692C11.8505 74.0692 11.4961 72.2104 11.5973 71.0015C11.6989 69.7886 12.3567 68.0799 12.3567 68.0799C12.3567 68.0799 12.9119 69.1659 13.306 69.8328C13.9605 70.9407 14.1316 71.8717 15.1411 72.5353C15.2852 72.63 15.5208 72.7545 15.5208 72.7545C15.5208 72.7545 15.6347 71.2762 15.5208 70.3441C15.4355 69.6454 15.1411 68.5912 15.1411 68.5912L15.9638 68.8103C15.9638 68.8103 15.9 68.0479 15.9638 67.5686C16.0267 67.096 16.2802 66.3999 16.2802 66.3999L16.913 66.9843H17.356C17.356 66.9843 17.0791 65.7788 17.0396 65.0122C16.9996 64.235 16.9239 63.8024 17.1662 63.1131C17.2285 62.9358 17.356 62.6749 17.356 62.6749L17.9256 63.4783C17.9256 63.4783 17.9194 62.9886 17.9256 62.6749C17.944 61.7299 18.0521 60.7758 18.1154 60.2645C18.1648 59.8652 18.7482 59.5341 18.7482 59.5341C18.7482 59.5341 19.1209 60.3217 19.3178 60.8489C19.4849 61.2965 19.493 61.591 19.6974 62.0175C20.112 62.8825 21.2795 63.7705 21.2795 63.7705C21.2795 63.7705 21.2464 61.9892 21.2795 60.8489C21.3152 59.62 21.5326 58.2194 21.6592 58.0003C21.8421 57.6836 21.8639 57.4215 22.1655 57.6351C22.3173 57.7427 22.4003 57.6616 22.5451 57.7081C22.7265 57.7664 22.9881 57.9272 22.9881 57.9272C22.9881 57.9272 23.0808 57.0268 22.9881 56.4664C22.8986 55.9253 22.5451 55.6526 22.6017 55.3355C22.6583 55.0185 23.2412 54.2022 23.2412 54.2022L23.6209 54.7135C23.6209 54.7135 23.5577 52.8144 23.6209 52.3761C23.6844 51.9367 24.3803 51.6457 24.3803 51.6457C24.3803 51.6457 24.6666 52.5308 24.9499 53.0335C25.3882 53.8113 25.6921 54.2855 26.4053 54.7135C27.0332 55.0902 28.1772 55.1517 28.1772 55.1517C28.1772 55.1517 27.8477 54.0567 27.7976 53.3257C27.7226 52.2318 27.8205 51.5673 28.1772 50.5501C28.3017 50.1954 28.5569 49.6737 28.5569 49.6737L29.1265 50.258C29.1265 50.258 28.9914 49.1541 28.9999 48.432C29.0077 47.7661 29.1265 46.752 29.1265 46.752L29.7593 47.4824C29.7593 47.4824 30.0679 46.8838 30.0757 46.4599C30.084 46.009 29.9491 45.6564 29.9491 45.2182C29.9491 44.7799 30.8351 43.9765 30.8351 43.9765C30.8351 43.9765 31.4821 45.5187 32.1639 46.2407C32.5831 46.6847 33.3664 47.1903 33.3664 47.1903C33.3664 47.1903 33.613 46.3571 33.6828 45.8025C33.7716 45.0968 33.5329 44.6683 33.6828 43.9765C33.9359 42.8078 34.6953 40.9818 34.6953 40.9818L35.2016 42.0044C35.2016 42.0044 35.4971 40.9439 35.6445 40.2514C35.7949 39.5452 35.9609 38.4254 35.9609 38.4254L36.7203 39.448L37.1633 39.3019L38.6188 41.7853L38.7453 39.448L39.4415 37.0376L40.1376 37.8411L40.3907 35.6499L40.9602 34.4812L41.3399 35.2847L43.4915 37.0376C43.4915 37.0376 44.1114 36.249 44.3775 35.6499C44.7274 34.8617 44.8837 33.4587 44.8837 33.4587L45.2634 33.8239V32.7283L45.6431 31.1944L46.8455 32.4361C46.8455 32.4361 47.4205 31.9944 47.6048 31.5596C47.8547 30.9703 47.6048 29.8797 47.6048 29.8797L48.5541 30.464V28.711L49.2502 26.2277L49.6299 27.0311L50.2627 28.0537C50.2627 28.0537 50.3317 27.1577 50.2627 26.5929C50.1982 26.0652 49.9463 25.2781 49.9463 25.2781C49.9463 25.2781 50.4795 25.1173 50.7689 25.2781C50.9894 25.4006 51.2119 25.7894 51.2119 25.7894V23.8904V22.9408L51.6549 23.5982V22.4295V20.3114C51.6549 20.3114 51.9988 20.5408 52.2244 20.6766C52.3714 20.7651 52.6041 20.8957 52.6041 20.8957C52.6041 20.8957 52.5052 20.0377 52.6041 19.5079C52.6766 19.1195 52.845 18.946 52.9205 18.5584C53.0344 17.974 52.7321 17.1426 52.9205 17.0246C53.2086 16.844 53.7102 17.6968 53.8698 18.3393C53.9787 18.778 53.7473 19.074 53.8698 19.5079C54.0376 20.1028 54.2776 20.6474 54.819 20.6766C55.0767 20.6905 55.4518 20.4575 55.4518 20.4575C55.4518 20.4575 55.3456 21.7914 55.3252 22.6487C55.311 23.2475 55.3252 24.1825 55.3252 24.1825L56.0846 23.3791C56.0846 23.3791 56.0846 24.9817 56.0846 26.0085C56.0846 26.4079 56.0846 27.0311 56.0846 27.0311L56.7807 26.2277C56.7807 26.2277 56.8767 26.9377 56.9073 27.3963C56.987 28.5921 56.6077 30.407 56.7807 30.464C56.9537 30.5211 57.0507 30.553 57.2237 30.6101C57.3967 30.6671 58.0464 29.4414 58.0464 29.4414L58.2362 30.6101C58.2362 30.6101 58.6331 30.7358 58.6792 30.9753C58.8058 31.6326 58.8058 32.8013 58.7425 33.3126C58.7124 33.5555 58.4261 33.8239 58.4261 33.8239C58.4261 33.8239 58.9105 33.9522 59.1855 33.8239C59.5985 33.631 59.8183 32.7283 59.8183 32.7283L60.0081 31.5596C60.0081 31.5596 60.5776 32.4731 60.8941 33.0935C61.1633 33.6212 61.4183 33.8818 61.5269 34.4812C61.6078 34.928 61.5269 35.6499 61.5269 35.6499L62.0964 35.1386C62.0964 35.1386 62.3781 35.7553 62.5394 36.1612C62.7288 36.6378 62.876 36.893 62.9824 37.4028C63.1444 38.1793 62.9824 39.448 62.9824 39.448C62.9824 39.448 63.8006 38.5138 64.248 37.8411C64.6612 37.2198 65.0026 36.9115 65.1972 36.1612C65.2835 35.8287 65.3238 35.2847 65.3238 35.2847C65.3238 35.2847 66.0233 36.063 66.3363 36.6724C66.5961 37.1783 66.8426 38.0602 66.8426 38.0602L67.2856 37.695C67.2856 37.695 67.6857 38.285 67.8551 38.7176C68.0749 39.2787 68.1715 40.2514 68.1715 40.2514L68.9309 39.3019C68.9309 39.3019 69.4178 39.8299 69.627 40.2514C70.0491 41.102 69.9434 42.7348 69.9434 42.7348C69.9434 42.7348 70.7897 41.6196 71.3356 40.9088C71.533 40.6518 71.7081 40.5583 71.8419 40.2514C72.0751 39.7163 71.5942 39.244 71.8419 38.7176C71.9506 38.4865 72.2215 38.2063 72.2215 38.2063C72.2215 38.2063 72.797 39.2524 73.1075 39.9593C73.3526 40.5172 73.5582 40.8097 73.677 41.4201C73.8071 42.088 73.677 42.4885 73.677 43.173C73.677 43.4298 73.677 43.8304 73.677 43.8304L74.1833 43.173C74.1833 43.173 74.3248 44.1252 74.4997 44.7069C74.6232 45.1173 74.8794 45.7295 74.8794 45.7295L75.1958 44.926C75.1958 44.926 76.1089 45.8148 76.3349 46.606C76.5438 47.3374 76.3349 48.578 76.3349 48.578C76.3349 48.578 77.3422 47.816 77.7904 47.1172C78.1061 46.625 78.3413 46.3346 78.4232 45.7295C78.5259 44.9706 77.9802 43.8304 77.9802 43.8304C77.9802 43.8304 78.7785 44.2672 79.1826 44.7069C79.7315 45.3043 79.8962 45.8064 80.1951 46.606C80.4991 47.4191 80.6493 47.9136 80.7014 48.7972C80.7198 49.1102 80.7014 49.6006 80.7014 49.6006L81.2076 49.4545C81.2076 49.4545 81.2222 50.1226 81.2076 50.5501C81.187 51.1514 81.0946 51.4825 81.081 52.084C81.0759 52.3121 81.081 52.6683 81.081 52.6683C81.081 52.6683 81.7122 52.4678 81.8404 52.084C81.9205 51.8445 81.8404 51.4266 81.8404 51.4266C81.8404 51.4266 82.3902 51.7612 82.6631 52.084C83.0722 52.568 83.2555 52.9523 83.3592 53.6178C83.4205 54.0109 83.3592 54.6404 83.3592 54.6404V55.3708L83.992 54.4213C83.992 54.4213 84.2335 55.1196 84.3083 55.5899C84.4199 56.2913 84.3083 57.416 84.3083 57.416C84.3083 57.416 85.0669 56.7834 85.5107 56.3203C86.0164 55.7927 86.5011 55.6074 86.7131 54.8595C86.8669 54.3174 86.7131 53.3987 86.7131 53.3987C86.7131 53.3987 87.3189 54.4145 87.5358 55.1517C87.6901 55.6761 87.7425 55.9882 87.7889 56.5395C87.8296 57.0221 87.7889 57.2962 87.7889 57.7812C87.7889 58.152 87.6575 58.3923 87.7889 58.7307C87.9326 59.1006 88.3358 59.0211 88.485 59.388C88.6321 59.7495 88.485 60.0113 88.485 60.4106C88.485 60.924 88.2263 61.3077 88.485 61.7253C88.5973 61.9065 88.7561 61.9064 88.8647 62.0905C89.0873 62.4678 88.8442 62.8034 88.8647 63.2592C88.888 63.7751 88.9913 64.5739 88.9913 64.5739C88.9913 64.5739 88.485 64.6379 88.485 64.8661C88.485 65.0943 88.485 65.2222 88.485 65.4504C88.485 65.6786 89.0043 65.2728 89.3077 65.0852C90.0627 64.6185 90.3935 64.1121 90.8265 63.2592C91.0447 62.8294 91.0262 62.5021 91.2695 62.0905C91.4371 61.8068 91.7757 61.4332 91.7757 61.4332C91.7757 61.4332 92.2381 62.3469 92.4718 63.0401C92.5457 63.2592 92.7249 64.72 92.9148 65.4504C93.0388 65.9276 92.7001 66.1959 92.6617 66.6921C92.6374 67.0046 92.6617 67.4955 92.6617 67.4955L93.3577 66.9112C93.3577 66.9112 93.7109 67.4995 93.8007 67.9338C93.8926 68.3777 93.8339 68.6477 93.8007 69.1024C93.7649 69.5931 93.6109 70.3441 93.6109 70.3441L94.4967 69.9059C94.4967 69.9059 94.9888 71.1626 95.0664 72.0241C95.1072 72.478 95.1617 72.7498 95.0664 73.1927C94.9944 73.5272 94.75 73.9961 94.75 73.9961L95.8258 73.4118C95.8258 73.4118 95.6634 74.4444 95.5094 75.0918C95.2795 76.0576 94.75 77.5021 94.75 77.5021C94.75 77.5021 96.2634 77.4363 96.8383 76.6986C97.2311 76.1946 97.1879 75.7205 97.4078 75.0918C97.5573 74.6644 97.7875 73.9961 97.7875 73.9961C97.7875 73.9961 98.4654 75.7759 98.5469 76.9908C98.612 77.9615 98.5311 78.5215 98.357 79.4742C98.2071 80.295 98.2021 80.8302 97.7875 81.5193C97.6178 81.8014 97.2812 82.1767 97.2812 82.1767C97.2812 82.1767 97.866 82.221 98.1039 81.9576C98.2795 81.7631 98.357 81.3002 98.357 81.3002C98.357 81.3002 98.4963 81.8287 98.5469 82.1767C98.7027 83.249 98.5287 83.8831 98.357 84.9522C98.2784 85.442 98.1039 86.1939 98.1039 86.1939L99.1164 85.9018C99.1164 85.9018 99.1786 86.7966 99.1164 87.3626C99.0073 88.3562 98.357 89.7729 98.357 89.7729C98.357 89.7729 100.192 89.2616 100.825 88.7503C101.174 88.468 100.825 88.0199 100.952 87.8008C101.078 87.5817 101.837 86.9974 101.837 86.9974C101.837 86.9974 102.086 88.4589 102.154 89.4077C102.235 90.5448 102.364 91.2143 102.154 92.3293C101.996 93.1678 101.458 94.3744 101.458 94.3744L102.47 94.0823C102.47 94.0823 102.312 95.5448 102.027 96.4196C101.74 97.3041 101.015 98.5377 101.015 98.5377L102.47 97.9534C102.47 97.9534 102.314 99.2445 102.027 99.9985C101.645 101.007 100.572 102.263 100.572 102.263C100.572 102.263 102.157 102.534 102.47 102.482C102.913 102.409 103.368 101.209 104.179 100.875C104.558 100.719 105.191 100.656 105.191 100.656C105.191 100.656 104.82 101.399 104.622 101.898C104.169 103.037 103.799 104.965 103.799 104.965C103.799 104.965 103.171 105.465 103.23 105.623C103.289 105.78 104.052 105.33 104.052 105.33C104.052 105.33 104.092 106.001 104.052 106.426C103.957 107.459 103.664 108 103.23 108.909C102.879 109.644 102.154 110.662 102.154 110.662L103.42 110.005C103.42 110.005 103.415 111.016 103.23 111.612C102.928 112.585 102.258 112.788 101.774 113.657C101.529 114.098 101.205 114.826 101.205 114.826L103.04 114.314H103.799C103.799 114.314 103.179 116.696 102.47 118.04C101.984 118.96 101.015 120.231 101.015 120.231H102.154C102.154 120.231 101.236 122.04 100.445 123.006C99.9042 123.668 99.3921 123.806 98.9266 124.54C98.6131 125.034 98.2938 125.928 98.2938 125.928C98.2938 125.928 99.2836 125.869 99.8758 125.636C100.346 125.45 101.015 124.978 101.015 124.978C101.015 124.978 101.238 125.132 101.394 125.124C101.641 125.112 101.901 124.686 101.901 124.686C101.901 124.686 102.455 125.462 102.154 125.636C101.901 125.782 101.246 128.342 100.445 129.945C100.034 130.768 99.3063 131.99 99.3063 131.99H100.255C100.255 131.99 99.6963 133.526 99.1797 134.401C98.3925 135.734 96.6484 137.322 96.6484 137.322L97.2812 137.614C97.2812 137.614 96.3942 138.238 95.8258 138.637C95.2574 139.036 94.3703 139.66 94.3703 139.66L96.9016 139.879C96.9016 139.879 95.9223 141.496 95.1929 142.435C94.6563 143.126 93.7374 144.115 93.7374 144.115L94.0539 144.845L89.9405 149.447L90.8898 149.666C90.8898 149.666 90.1885 150.728 89.7507 151.419C89.3129 152.11 86.2702 154.925 86.2702 154.925H87.5358C87.5358 154.925 86.3814 156.527 85.5107 157.408C84.7738 158.154 83.549 159.161 83.549 159.161H84.4983C84.4983 159.161 83.4484 160.899 82.5365 161.718C81.7163 162.455 80.1951 163.179 80.1951 163.179L81.081 163.544C81.081 163.544 79.335 165.548 78.1068 166.685C76.7483 167.942 75.8557 168.442 74.4364 169.606C73.8159 170.115 72.8544 170.921 72.8544 170.921L73.6138 171.286C73.6138 171.286 72.7643 172.34 72.095 172.82C71.3506 173.354 70.8255 173.408 70.0067 173.769C69.0718 174.182 68.402 174.098 67.602 174.792C67.2108 175.131 66.716 175.815 66.716 175.815L67.602 176.034C67.602 176.034 66.6394 176.484 66.0199 176.764C65.3791 177.054 64.9365 177.036 64.3745 177.495C63.8164 177.95 63.6225 178.378 63.2355 179.028C62.8536 179.67 62.5878 180.029 62.4128 180.781C62.3222 181.171 62.3126 181.402 62.2863 181.804C62.2304 182.659 62.2933 183.149 62.4128 183.995C62.6139 185.42 63.4253 187.501 63.4253 187.501Z" stroke="black" stroke-linecap="round" stroke-linejoin="round"/>
</svg>
