<svg width="26" height="18" viewBox="0 0 26 18" fill="none" xmlns="http://www.w3.org/2000/svg">
<path d="M25.0781 2.85938C25.6406 4.82812 25.6406 9.04688 25.6406 9.04688C25.6406 9.04688 25.6406 13.2188 25.0781 15.2344C24.7969 16.3594 23.9062 17.2031 22.8281 17.4844C20.8125 18 12.8438 18 12.8438 18C12.8438 18 4.82812 18 2.8125 17.4844C1.73438 17.2031 0.84375 16.3594 0.5625 15.2344C0 13.2188 0 9.04688 0 9.04688C0 9.04688 0 4.82812 0.5625 2.85938C0.84375 1.73438 1.73438 0.84375 2.8125 0.5625C4.82812 0 12.8438 0 12.8438 0C12.8438 0 20.8125 0 22.8281 0.5625C23.9062 0.84375 24.7969 1.73438 25.0781 2.85938ZM10.2188 12.8438L16.875 9.04688L10.2188 5.25V12.8438Z" fill="#ADADAD"/>
</svg>
